<?xml version="1.0" encoding="UTF-8"?>
<svg version="1.1" xmlns="http://www.w3.org/2000/svg" width="304" height="443">
<path d="M0 0 C0.99 0.495 0.99 0.495 2 1 C2.5625 2.890625 2.5625 2.890625 3 5.25 C3.54553658 8.02607725 4.09292826 10.20908859 5.25 12.8125 C6 15 6 15 5.125 17.3125 C4.568125 18.1478125 4.568125 18.1478125 4 19 C5.32 18.34 6.64 17.68 8 17 C8.08808512 13.82893561 8.07470182 11.00916509 7 8 C6.01 7.505 6.01 7.505 5 7 C4.505 3.535 4.505 3.535 4 0 C45.25 0 86.5 0 129 0 C129 0.99 129 1.98 129 3 C130.32 2.67 131.64 2.34 133 2 C133.45375 2.639375 133.9075 3.27875 134.375 3.9375 C135.83921726 6.09702406 135.83921726 6.09702406 138 7 C136.1875 9.5 136.1875 9.5 134 12 C133.01 12 132.02 12 131 12 C129.89459074 14.78918149 129.89459074 14.78918149 130 17 C129.67 17.66 129.34 18.32 129 19 C129.5775 18.814375 130.155 18.62875 130.75 18.4375 C133.24369772 17.95261433 134.59211213 18.30093578 137 19 C142.697972 19 146.18360509 16.87131235 151 14 C151.33 14.66 151.66 15.32 152 16 C152.66 16 153.32 16 154 16 C153.67 16.99 153.34 17.98 153 19 C153.5775 19.28875 154.155 19.5775 154.75 19.875 C155.4925 20.24625 156.235 20.6175 157 21 C157.680625 21.33 158.36125 21.66 159.0625 22 C161 23 161 23 164 25 C164.66 25 165.32 25 166 25 C166 24.34 166 23.68 166 23 C168 21 168 21 170.625 20.875 C171.40875 20.91625 172.1925 20.9575 173 21 C174.46851495 17.97118792 175.00057822 16.03122374 174.9375 12.625 C175.01150117 8.33293209 175.88277955 5.72338769 178 2 C182.65844535 -0.79104883 187.86324677 -0.25317236 193.11328125 -0.1953125 C194.56760811 -0.19106766 194.56760811 -0.19106766 196.05131531 -0.18673706 C199.13850405 -0.17556991 202.22539939 -0.15047152 205.3125 -0.125 C207.40950101 -0.11496573 209.50650658 -0.10584066 211.60351562 -0.09765625 C216.7357896 -0.07564188 221.8678451 -0.04113571 227 0 C227 2.31 227 4.62 227 7 C225.61663452 7.02187378 225.61663452 7.02187378 224.20532227 7.04418945 C220.74398482 7.10568474 217.28338547 7.17991477 213.82250977 7.26245117 C212.33205243 7.29545795 210.84147738 7.32356327 209.35083008 7.34643555 C201.09327862 7.47654112 193.7374815 7.77673459 186 11 C184.88625 11.391875 183.7725 11.78375 182.625 12.1875 C179.31985446 14.4696243 178.85946146 16.35146545 177.71875 20.0859375 C177 22 177 22 174.875 24.0625 C172.19328393 26.8336066 172.20551935 29.23214532 172 33 C172.33 33.99 172.66 34.98 173 36 C173.02172852 37.90112305 173.02172852 37.90112305 172.87890625 40.01171875 C172.83056641 40.76904297 172.78222656 41.52636719 172.73242188 42.30664062 C172.67634766 43.09232422 172.62027344 43.87800781 172.5625 44.6875 C172.51029297 45.48478516 172.45808594 46.28207031 172.40429688 47.10351562 C172.27480978 49.06936522 172.13809959 51.03473665 172 53 C172.98742187 52.98839844 173.97484375 52.97679687 174.9921875 52.96484375 C176.27351562 52.95582031 177.55484375 52.94679687 178.875 52.9375 C180.15117187 52.92589844 181.42734375 52.91429687 182.7421875 52.90234375 C186 53 186 53 188 54 C188.33 75.12 188.66 96.24 189 118 C193.95 118.33 198.9 118.66 204 119 C203.67 151.01 203.34 183.02 203 216 C198.38 216.33 193.76 216.66 189 217 C187.25878454 220.48243093 187.5937644 224.50306686 187.37890625 228.34765625 C187.25386719 229.22292969 187.12882812 230.09820312 187 231 C182.51793698 233.24103151 177.01109879 232 172 232 C172 242.23 172 252.46 172 263 C176.95 263 181.9 263 187 263 C187 279.17 187 295.34 187 312 C191.95 312 196.9 312 202 312 C203 313 203 313 203.11352539 315.95922852 C203.10828857 317.25272217 203.10305176 318.54621582 203.09765625 319.87890625 C203.09553383 320.90889992 203.09553383 320.90889992 203.09336853 321.95970154 C203.08775479 324.16067801 203.07520007 326.36155409 203.0625 328.5625 C203.05748676 330.05143083 203.05292355 331.54036324 203.04882812 333.02929688 C203.03863021 336.68626805 203.01905779 340.34302117 203 344 C198.05 344 193.1 344 188 344 C187.67 349.28 187.34 354.56 187 360 C170.78109503 361.08126033 155.29048613 361.08603241 139 360 C139.33 375.51 139.66 391.02 140 407 C144.95 407 149.9 407 155 407 C155 417.89 155 428.78 155 440 C137.15569642 440.66090013 119.35535829 441.10692611 101.5 441.125 C100.63415283 441.12749756 99.76830566 441.12999512 98.8762207 441.13256836 C96.38619023 441.13848292 93.89628196 441.13696636 91.40625 441.1328125 C90.6740625 441.13479645 89.941875 441.1367804 89.1875 441.13882446 C84.38085044 441.11739593 79.76029086 440.67363869 75 440 C74.85447541 435.57504611 74.7122407 431.15000088 74.57275391 426.72485352 C74.52510462 425.22677926 74.47663312 423.72873087 74.42724609 422.23071289 C74.09558872 412.14900566 73.93354344 402.08755245 74 392 C73.01 392.33 72.02 392.66 71 393 C69.10529184 393.0685495 67.2083166 393.08480372 65.3125 393.0625 C64.31863281 393.05347656 63.32476562 393.04445313 62.30078125 393.03515625 C61.16189453 393.01775391 61.16189453 393.01775391 60 393 C60.01047363 394.27641357 60.02094727 395.55282715 60.03173828 396.86791992 C60.06798281 401.61089261 60.09091677 406.35385309 60.10986328 411.09692383 C60.11991069 413.14837707 60.13355092 415.19981604 60.15087891 417.2512207 C60.17518246 420.20267262 60.18649582 423.1539349 60.1953125 426.10546875 C60.20563507 427.02023483 60.21595764 427.93500092 60.22659302 428.87748718 C60.22738078 433.36493055 60.13839902 436.92668284 58 441 C31.6582703 441.22370165 5.33375589 440.58081541 -21 440 C-21 429.11 -21 418.22 -21 407 C-16.05 407 -11.1 407 -6 407 C-6 391.82 -6 376.64 -6 361 C-11.89166667 361.40416667 -11.89166667 361.40416667 -14.75 364.625 C-16.61258049 366.27636002 -17.62145239 366.94952699 -20.109375 367.28125 C-26.6529566 366.85356493 -32.42548921 364.45472918 -38.50390625 362.14453125 C-43.39386438 360.54368462 -47.87377924 360.20781976 -53 360 C-53.495 352.575 -53.495 352.575 -54 345 C-58.95 344.67 -63.9 344.34 -69 344 C-69 333.44 -69 322.88 -69 312 C-63.72 312 -58.44 312 -53 312 C-53.16242187 309.88335937 -53.32484375 307.76671875 -53.4921875 305.5859375 C-54.04838591 297.66313184 -54.15353489 289.76405643 -54.13037109 281.82421875 C-54.12488536 279.57806008 -54.13042293 277.33209112 -54.13671875 275.0859375 C-54.13605991 273.65364539 -54.13478281 272.2213534 -54.1328125 270.7890625 C-54.13168457 269.50725098 -54.13055664 268.22543945 -54.12939453 266.90478516 C-54 264 -54 264 -53 263 C-50.85795689 262.79016721 -48.71075887 262.63176615 -46.5625 262.5 C-42.12215669 262.35852674 -42.12215669 262.35852674 -38 261 C-38 251.43 -38 241.86 -38 232 C-42.29 232 -46.58 232 -51 232 C-52.485 231.01 -52.485 231.01 -54 230 C-54.29296875 226.7421875 -54.29296875 226.7421875 -54.1875 222.875 C-54.16042969 221.59367188 -54.13335937 220.31234375 -54.10546875 218.9921875 C-54.07066406 218.00476563 -54.03585938 217.01734375 -54 216 C-55.60681641 216.01740234 -55.60681641 216.01740234 -57.24609375 216.03515625 C-58.64322743 216.04453299 -60.04036299 216.05363331 -61.4375 216.0625 C-62.14455078 216.07087891 -62.85160156 216.07925781 -63.58007812 216.08789062 C-65.38693559 216.09653588 -67.19387603 216.05220011 -69 216 C-70 215 -70 215 -70.11352539 212.54426575 C-70.10567017 210.90550728 -70.10567017 210.90550728 -70.09765625 209.23364258 C-70.09435303 207.99757767 -70.0910498 206.76151276 -70.08764648 205.48799133 C-70.08146805 204.48890967 -70.08146805 204.48890967 -70.07516479 203.46964455 C-70.06239912 201.37800193 -70.05588255 199.2864229 -70.05102539 197.19474792 C-70.03764584 191.98679365 -70.01373145 186.77889778 -69.98962402 181.57098389 C-69.96968518 177.19032291 -69.95411672 172.80968648 -69.94406128 168.42899132 C-69.93768781 166.39205415 -69.92516881 164.35521876 -69.91235352 162.3183136 C-69.89300009 154.83617796 -70.15800134 147.4466447 -70.76704407 139.98849487 C-71.07128545 136.08550853 -71.16802283 132.2274109 -71.1875 128.3125 C-71.19974609 127.63767578 -71.21199219 126.96285156 -71.22460938 126.26757812 C-71.23552375 122.60398584 -71.09172075 121.13758112 -69 118 C-64.10095889 116.60027397 -59.9481883 117.32663829 -55 118 C-55.00999275 116.84488167 -55.00999275 116.84488167 -55.02018738 115.66642761 C-55.08027629 108.41232217 -55.12596289 101.15833725 -55.15543652 93.90404797 C-55.17109859 90.17444945 -55.19234629 86.44505642 -55.22631836 82.71557617 C-55.25889319 79.11700226 -55.27684894 75.51862611 -55.28463173 71.91991615 C-55.29017868 70.54635822 -55.30101052 69.17281122 -55.31719017 67.79933739 C-55.33893676 65.87699293 -55.34022517 63.95444985 -55.34057617 62.03198242 C-55.35056892 60.38984016 -55.35056892 60.38984016 -55.36076355 58.71452332 C-55 56 -55 56 -53.67475891 54.14131165 C-50.99039143 52.3119738 -48.49590168 52.71794351 -45.3125 52.8125 C-43.54326172 52.85310547 -43.54326172 52.85310547 -41.73828125 52.89453125 C-40.83464844 52.92933594 -39.93101563 52.96414062 -39 53 C-39.05220703 51.64455078 -39.05220703 51.64455078 -39.10546875 50.26171875 C-39.13253906 49.08222656 -39.15960938 47.90273438 -39.1875 46.6875 C-39.22230469 45.51574219 -39.25710937 44.34398437 -39.29296875 43.13671875 C-39 40 -39 40 -37.65625 38.09375 C-35.38602488 36.59454473 -33.65931648 36.78437974 -31 37 C-32.64385904 28.78529991 -32.64385904 28.78529991 -37.0625 21.9375 C-39.11678512 19.88321488 -39.90645855 18.89978504 -40 16 C-37.16621254 12.12218558 -33.65821962 11.11492723 -29.0625 10.3125 C-26.38726752 9.99660539 -25.05386016 9.98292239 -22.4375 10.8125 C-19.28240383 11.05519971 -18.62919751 10.1854468 -16.25 8.1875 C-14.3803109 6.47632802 -13.13552614 5.27105229 -12 3 C-11.34 3.33 -10.68 3.66 -10 4 C-10 6.64 -10 9.28 -10 12 C-8.68 12.33 -7.36 12.66 -6 13 C-3.54420303 9.31435916 -3.54420303 9.31435916 -3 5 C-2.34 5 -1.68 5 -1 5 C-0.67 3.35 -0.34 1.7 0 0 Z M129 7 C129.33 7.66 129.66 8.32 130 9 C130.66 8.34 131.32 7.68 132 7 C131.01 7 130.02 7 129 7 Z M-35 13 C-34.67 13.66 -34.34 14.32 -34 15 C-33.01 15.33 -32.02 15.66 -31 16 C-31.54597644 17.63792933 -32.10878319 19.27195796 -32.75 20.875 C-33.11348643 23.96463469 -31.66019893 25.4458478 -30 28 C-29.835 28.7425 -29.67 29.485 -29.5 30.25 C-29.2525 31.11625 -29.2525 31.11625 -29 32 C-28.01 32.33 -27.02 32.66 -26 33 C-25.06576355 29.98968256 -24.95550089 29.13349732 -26 26 C-25.0625 23.3125 -25.0625 23.3125 -24 21 C-22.72125 21.04125 -21.4425 21.0825 -20.125 21.125 C-17.98128508 21.24212873 -17.98128508 21.24212873 -16 21 C-15.34 20.34 -14.68 19.68 -14 19 C-14.99 18.67 -15.98 18.34 -17 18 C-17.33 17.34 -17.66 16.68 -18 16 C-19.32 16 -20.64 16 -22 16 C-22.33 15.34 -22.66 14.68 -23 14 C-23.66 14 -24.32 14 -25 14 C-26.7092566 13.84308464 -28.41751321 13.67512685 -30.125 13.5 C-31.03507812 13.4071875 -31.94515625 13.314375 -32.8828125 13.21875 C-33.58148438 13.1465625 -34.28015625 13.074375 -35 13 Z M146 18 C145.67 18.66 145.34 19.32 145 20 C145.66 20 146.32 20 147 20 C146.67 19.34 146.34 18.68 146 18 Z M161 26 C159.93453047 29.1964086 159.92572162 31.65747276 160 35 C162.31 35 164.62 35 167 35 C166.690625 34.071875 166.38125 33.14375 166.0625 32.1875 C165.375 30.125 164.6875 28.0625 164 26 C163.01 26 162.02 26 161 26 Z " fill="#010208" transform="translate(77,0)"/>
<path d="M0 0 C0.99 0.495 0.99 0.495 2 1 C2.5625 2.890625 2.5625 2.890625 3 5.25 C3.54553658 8.02607725 4.09292826 10.20908859 5.25 12.8125 C6 15 6 15 5.125 17.3125 C4.568125 18.1478125 4.568125 18.1478125 4 19 C5.32 18.34 6.64 17.68 8 17 C8.08808512 13.82893561 8.07470182 11.00916509 7 8 C6.01 7.505 6.01 7.505 5 7 C4.505 3.535 4.505 3.535 4 0 C45.25 0 86.5 0 129 0 C129 0.99 129 1.98 129 3 C130.32 2.67 131.64 2.34 133 2 C133.45375 2.639375 133.9075 3.27875 134.375 3.9375 C135.83921726 6.09702406 135.83921726 6.09702406 138 7 C136.1875 9.5 136.1875 9.5 134 12 C133.01 12 132.02 12 131 12 C129.89459074 14.78918149 129.89459074 14.78918149 130 17 C129.67 17.66 129.34 18.32 129 19 C129.5775 18.814375 130.155 18.62875 130.75 18.4375 C133.24369772 17.95261433 134.59211213 18.30093578 137 19 C142.697972 19 146.18360509 16.87131235 151 14 C151.33 14.66 151.66 15.32 152 16 C152.66 16 153.32 16 154 16 C153.67 16.99 153.34 17.98 153 19 C153.5775 19.28875 154.155 19.5775 154.75 19.875 C155.4925 20.24625 156.235 20.6175 157 21 C157.680625 21.33 158.36125 21.66 159.0625 22 C161 23 161 23 164 25 C164.66 25 165.32 25 166 25 C166 24.34 166 23.68 166 23 C168 21 168 21 170.625 20.875 C171.40875 20.91625 172.1925 20.9575 173 21 C174.46851495 17.97118792 175.00057822 16.03122374 174.9375 12.625 C175.01150117 8.33293209 175.88277955 5.72338769 178 2 C182.65844535 -0.79104883 187.86324677 -0.25317236 193.11328125 -0.1953125 C194.56760811 -0.19106766 194.56760811 -0.19106766 196.05131531 -0.18673706 C199.13850405 -0.17556991 202.22539939 -0.15047152 205.3125 -0.125 C207.40950101 -0.11496573 209.50650658 -0.10584066 211.60351562 -0.09765625 C216.7357896 -0.07564188 221.8678451 -0.04113571 227 0 C227 2.31 227 4.62 227 7 C225.61663452 7.02187378 225.61663452 7.02187378 224.20532227 7.04418945 C220.74398482 7.10568474 217.28338547 7.17991477 213.82250977 7.26245117 C212.33205243 7.29545795 210.84147738 7.32356327 209.35083008 7.34643555 C201.09327862 7.47654112 193.7374815 7.77673459 186 11 C184.88625 11.391875 183.7725 11.78375 182.625 12.1875 C179.31985446 14.4696243 178.85946146 16.35146545 177.71875 20.0859375 C177 22 177 22 174.875 24.0625 C172.19328393 26.8336066 172.20551935 29.23214532 172 33 C172.33 33.99 172.66 34.98 173 36 C173.02172852 37.90112305 173.02172852 37.90112305 172.87890625 40.01171875 C172.83056641 40.76904297 172.78222656 41.52636719 172.73242188 42.30664062 C172.67634766 43.09232422 172.62027344 43.87800781 172.5625 44.6875 C172.51029297 45.48478516 172.45808594 46.28207031 172.40429688 47.10351562 C172.27480978 49.06936522 172.13809959 51.03473665 172 53 C172.98742187 52.98839844 173.97484375 52.97679687 174.9921875 52.96484375 C176.27351562 52.95582031 177.55484375 52.94679687 178.875 52.9375 C180.15117187 52.92589844 181.42734375 52.91429687 182.7421875 52.90234375 C186 53 186 53 188 54 C188.33 75.12 188.66 96.24 189 118 C193.95 118.33 198.9 118.66 204 119 C204 124.94 204 130.88 204 137 C203.67 137 203.34 137 203 137 C203 131.39 203 125.78 203 120 C197.72 120 192.44 120 187 120 C187 98.55 187 77.1 187 55 C181.72 55 176.44 55 171 55 C171 50.05 171 45.1 171 40 C165.72 40 160.44 40 155 40 C155 34.72 155 29.44 155 24 C144.44 24 133.88 24 123 24 C123 18.72 123 13.44 123 8 C86.04 8 49.08 8 11 8 C11 18.23 11 28.46 11 39 C16.28 39 21.56 39 27 39 C27 33.72 27 28.44 27 23 C48.12 23 69.24 23 91 23 C91 28.28 91 33.56 91 39 C106.84 39 122.68 39 139 39 C139 44.28 139 49.56 139 55 C133.72 55 128.44 55 123 55 C123 60.28 123 65.56 123 71 C112.44 71 101.88 71 91 71 C91 76.28 91 81.56 91 87 C96.28 87 101.56 87 107 87 C107 92.28 107 97.56 107 103 C96.44 103 85.88 103 75 103 C75 97.72 75 92.44 75 87 C69.72 87 64.44 87 59 87 C59 81.72 59 76.44 59 71 C53.72 71 48.44 71 43 71 C43 76.61 43 82.22 43 88 C48.28 88 53.56 88 59 88 C59 93.28 59 98.56 59 104 C64.28 104 69.56 104 75 104 C75 109.28 75 114.56 75 120 C80.28 120 85.56 120 91 120 C91 135.51 91 151.02 91 167 C96.28 167 101.56 167 107 167 C107 156.44 107 145.88 107 135 C112.28 135 117.56 135 123 135 C123 140.61 123 146.22 123 152 C128.28 152 133.56 152 139 152 C139 161.9 139 171.8 139 182 C133.72 182 128.44 182 123 182 C123 187.61 123 193.22 123 199 C117.72 199 112.44 199 107 199 C107 204.28 107 209.56 107 215 C80.6 215 54.2 215 27 215 C27 209.72 27 204.44 27 199 C16.11 199 5.22 199 -6 199 C-6 193.39 -6 187.78 -6 182 C-10.95 182 -15.9 182 -21 182 C-21 198.17 -21 214.34 -21 231 C-15.72 231 -10.44 231 -5 231 C-5 246.84 -5 262.68 -5 279 C-15.56 279 -26.12 279 -37 279 C-37 284.61 -37 290.22 -37 296 C-26.44 296 -15.88 296 -5 296 C-5 301.28 -5 306.56 -5 312 C10.84 312 26.68 312 43 312 C41.83722968 310.60843516 41.83722968 310.60843516 38.62109375 310.90234375 C37.22652508 310.90808576 35.83198403 310.92109772 34.4375 310.9375 C31.983125 310.958125 29.52875 310.97875 27 311 C27 305.72 27 300.44 27 295 C21.72 295 16.44 295 11 295 C11 284.44 11 273.88 11 263 C21.56 263 32.12 263 43 263 C43 257.72 43 252.44 43 247 C48.28 247 53.56 247 59 247 C59 273.73 59 300.46 59 328 C53.72 328 48.44 328 43 328 C43 332.95 43 337.9 43 343 C37.10799549 343.85481391 31.41741829 344.1344851 25.46875 344.09765625 C24.15396667 344.09553383 24.15396667 344.09553383 22.81262207 344.09336853 C20.04171179 344.08781768 17.27088543 344.07527461 14.5 344.0625 C12.60937618 344.05747864 10.71875107 344.05291685 8.828125 344.04882812 C4.21871817 344.0378644 -0.39062673 344.02063425 -5 344 C-5 348.62 -5 353.24 -5 358 C-6.07121094 357.98839844 -7.14242187 357.97679687 -8.24609375 357.96484375 C-9.64322743 357.95546701 -11.04036299 357.94636669 -12.4375 357.9375 C-13.14455078 357.92912109 -13.85160156 357.92074219 -14.58007812 357.91210938 C-16.38693559 357.90346412 -18.19387603 357.94779989 -20 358 C-20.33 358.33 -20.66 358.66 -21 359 C-15.39 359 -9.78 359 -4 359 C-4 374.84 -4 390.68 -4 407 C6.23 407 16.46 407 27 407 C27 412.28 27 417.56 27 423 C16.44 423 5.88 423 -5 423 C-5 418.05 -5 413.1 -5 408 C-9.95 408 -14.9 408 -20 408 C-20 417.9 -20 427.8 -20 438 C-20.33 438 -20.66 438 -21 438 C-21 427.77 -21 417.54 -21 407 C-16.05 407 -11.1 407 -6 407 C-6 391.82 -6 376.64 -6 361 C-11.89166667 361.40416667 -11.89166667 361.40416667 -14.75 364.625 C-16.61258049 366.27636002 -17.62145239 366.94952699 -20.109375 367.28125 C-26.6529566 366.85356493 -32.42548921 364.45472918 -38.50390625 362.14453125 C-43.39386438 360.54368462 -47.87377924 360.20781976 -53 360 C-53.495 352.575 -53.495 352.575 -54 345 C-58.95 344.67 -63.9 344.34 -69 344 C-69 333.44 -69 322.88 -69 312 C-63.72 312 -58.44 312 -53 312 C-53.16242187 309.88335937 -53.32484375 307.76671875 -53.4921875 305.5859375 C-54.04838591 297.66313184 -54.15353489 289.76405643 -54.13037109 281.82421875 C-54.12488536 279.57806008 -54.13042293 277.33209112 -54.13671875 275.0859375 C-54.13605991 273.65364539 -54.13478281 272.2213534 -54.1328125 270.7890625 C-54.13168457 269.50725098 -54.13055664 268.22543945 -54.12939453 266.90478516 C-54 264 -54 264 -53 263 C-50.85795689 262.79016721 -48.71075887 262.63176615 -46.5625 262.5 C-42.12215669 262.35852674 -42.12215669 262.35852674 -38 261 C-38 251.43 -38 241.86 -38 232 C-42.29 232 -46.58 232 -51 232 C-52.485 231.01 -52.485 231.01 -54 230 C-54.29296875 226.7421875 -54.29296875 226.7421875 -54.1875 222.875 C-54.16042969 221.59367188 -54.13335937 220.31234375 -54.10546875 218.9921875 C-54.07066406 218.00476563 -54.03585938 217.01734375 -54 216 C-55.60681641 216.01740234 -55.60681641 216.01740234 -57.24609375 216.03515625 C-58.64322743 216.04453299 -60.04036299 216.05363331 -61.4375 216.0625 C-62.14455078 216.07087891 -62.85160156 216.07925781 -63.58007812 216.08789062 C-65.38693559 216.09653588 -67.19387603 216.05220011 -69 216 C-70 215 -70 215 -70.11352539 212.54426575 C-70.10567017 210.90550728 -70.10567017 210.90550728 -70.09765625 209.23364258 C-70.09435303 207.99757767 -70.0910498 206.76151276 -70.08764648 205.48799133 C-70.08146805 204.48890967 -70.08146805 204.48890967 -70.07516479 203.46964455 C-70.06239912 201.37800193 -70.05588255 199.2864229 -70.05102539 197.19474792 C-70.03764584 191.98679365 -70.01373145 186.77889778 -69.98962402 181.57098389 C-69.96968518 177.19032291 -69.95411672 172.80968648 -69.94406128 168.42899132 C-69.93768781 166.39205415 -69.92516881 164.35521876 -69.91235352 162.3183136 C-69.89300009 154.83617796 -70.15800134 147.4466447 -70.76704407 139.98849487 C-71.07128545 136.08550853 -71.16802283 132.2274109 -71.1875 128.3125 C-71.19974609 127.63767578 -71.21199219 126.96285156 -71.22460938 126.26757812 C-71.23552375 122.60398584 -71.09172075 121.13758112 -69 118 C-64.10095889 116.60027397 -59.9481883 117.32663829 -55 118 C-55.00999275 116.84488167 -55.00999275 116.84488167 -55.02018738 115.66642761 C-55.08027629 108.41232217 -55.12596289 101.15833725 -55.15543652 93.90404797 C-55.17109859 90.17444945 -55.19234629 86.44505642 -55.22631836 82.71557617 C-55.25889319 79.11700226 -55.27684894 75.51862611 -55.28463173 71.91991615 C-55.29017868 70.54635822 -55.30101052 69.17281122 -55.31719017 67.79933739 C-55.33893676 65.87699293 -55.34022517 63.95444985 -55.34057617 62.03198242 C-55.35056892 60.38984016 -55.35056892 60.38984016 -55.36076355 58.71452332 C-55 56 -55 56 -53.67475891 54.14131165 C-50.99039143 52.3119738 -48.49590168 52.71794351 -45.3125 52.8125 C-43.54326172 52.85310547 -43.54326172 52.85310547 -41.73828125 52.89453125 C-40.83464844 52.92933594 -39.93101563 52.96414062 -39 53 C-39.05220703 51.64455078 -39.05220703 51.64455078 -39.10546875 50.26171875 C-39.13253906 49.08222656 -39.15960938 47.90273438 -39.1875 46.6875 C-39.22230469 45.51574219 -39.25710937 44.34398437 -39.29296875 43.13671875 C-39 40 -39 40 -37.65625 38.09375 C-35.38602488 36.59454473 -33.65931648 36.78437974 -31 37 C-32.64385904 28.78529991 -32.64385904 28.78529991 -37.0625 21.9375 C-39.11678512 19.88321488 -39.90645855 18.89978504 -40 16 C-37.16621254 12.12218558 -33.65821962 11.11492723 -29.0625 10.3125 C-26.38726752 9.99660539 -25.05386016 9.98292239 -22.4375 10.8125 C-19.28240383 11.05519971 -18.62919751 10.1854468 -16.25 8.1875 C-14.3803109 6.47632802 -13.13552614 5.27105229 -12 3 C-11.34 3.33 -10.68 3.66 -10 4 C-10 6.64 -10 9.28 -10 12 C-8.68 12.33 -7.36 12.66 -6 13 C-3.54420303 9.31435916 -3.54420303 9.31435916 -3 5 C-2.34 5 -1.68 5 -1 5 C-0.67 3.35 -0.34 1.7 0 0 Z M129 7 C129.33 7.66 129.66 8.32 130 9 C130.66 8.34 131.32 7.68 132 7 C131.01 7 130.02 7 129 7 Z M-35 13 C-34.67 13.66 -34.34 14.32 -34 15 C-33.01 15.33 -32.02 15.66 -31 16 C-31.54597644 17.63792933 -32.10878319 19.27195796 -32.75 20.875 C-33.11348643 23.96463469 -31.66019893 25.4458478 -30 28 C-29.835 28.7425 -29.67 29.485 -29.5 30.25 C-29.2525 31.11625 -29.2525 31.11625 -29 32 C-28.01 32.33 -27.02 32.66 -26 33 C-25.06576355 29.98968256 -24.95550089 29.13349732 -26 26 C-25.0625 23.3125 -25.0625 23.3125 -24 21 C-22.72125 21.04125 -21.4425 21.0825 -20.125 21.125 C-17.98128508 21.24212873 -17.98128508 21.24212873 -16 21 C-15.34 20.34 -14.68 19.68 -14 19 C-14.99 18.67 -15.98 18.34 -17 18 C-17.33 17.34 -17.66 16.68 -18 16 C-19.32 16 -20.64 16 -22 16 C-22.33 15.34 -22.66 14.68 -23 14 C-23.66 14 -24.32 14 -25 14 C-26.7092566 13.84308464 -28.41751321 13.67512685 -30.125 13.5 C-31.03507812 13.4071875 -31.94515625 13.314375 -32.8828125 13.21875 C-33.58148438 13.1465625 -34.28015625 13.074375 -35 13 Z M146 18 C145.67 18.66 145.34 19.32 145 20 C145.66 20 146.32 20 147 20 C146.67 19.34 146.34 18.68 146 18 Z M161 26 C159.93453047 29.1964086 159.92572162 31.65747276 160 35 C162.31 35 164.62 35 167 35 C166.690625 34.071875 166.38125 33.14375 166.0625 32.1875 C165.375 30.125 164.6875 28.0625 164 26 C163.01 26 162.02 26 161 26 Z " fill="#03040B" transform="translate(77,0)"/>
<path d="M0 0 C4.95 0 9.9 0 15 0 C15 5.61 15 11.22 15 17 C25.89 17 36.78 17 48 17 C48 22.28 48 27.56 48 33 C74.73 33 101.46 33 129 33 C129 28.05 129 23.1 129 18 C133.95 18 138.9 18 144 18 C144 22.95 144 27.9 144 33 C154.56 33 165.12 33 176 33 C176 38.28 176 43.56 176 49 C165.44 49 154.88 49 144 49 C144 54.28 144 59.56 144 65 C138.72 65 133.44 65 128 65 C128 70.28 128 75.56 128 81 C133.28 81 138.56 81 144 81 C144 91.56 144 102.12 144 113 C138.72 113 133.44 113 128 113 C128 118.61 128 124.22 128 130 C138.56 130 149.12 130 160 130 C160 140.56 160 151.12 160 162 C149.44 162 138.88 162 128 162 C128.33 163.32 128.66 164.64 129 166 C128.84015766 169.69184254 128.39400748 173.32259682 128 177 C133.28 177 138.56 177 144 177 C144 192.84 144 208.68 144 225 C149.28 225 154.56 225 160 225 C160.33 224.34 160.66 223.68 161 223 C161 223.66 161 224.32 161 225 C165.95 225 170.9 225 176 225 C176 235.89 176 246.78 176 258 C158.15569642 258.66090013 140.35535829 259.10692611 122.5 259.125 C121.63415283 259.12749756 120.76830566 259.12999512 119.8762207 259.13256836 C117.38619023 259.13848292 114.89628196 259.13696636 112.40625 259.1328125 C111.6740625 259.13479645 110.941875 259.1367804 110.1875 259.13882446 C105.38085044 259.11739593 100.76029086 258.67363869 96 258 C95.85447541 253.57504611 95.7122407 249.15000088 95.57275391 244.72485352 C95.52510462 243.22677926 95.47663312 241.72873087 95.42724609 240.23071289 C95.09558872 230.14900566 94.93354344 220.08755245 95 210 C94.01 210.33 93.02 210.66 92 211 C90.10529184 211.0685495 88.2083166 211.08480372 86.3125 211.0625 C85.31863281 211.05347656 84.32476562 211.04445313 83.30078125 211.03515625 C82.16189453 211.01775391 82.16189453 211.01775391 81 211 C81.01047363 212.27641357 81.02094727 213.55282715 81.03173828 214.86791992 C81.06798281 219.61089261 81.09091677 224.35385309 81.10986328 229.09692383 C81.11991069 231.14837707 81.13355092 233.19981604 81.15087891 235.2512207 C81.17518246 238.20267262 81.18649582 241.1539349 81.1953125 244.10546875 C81.20563507 245.02023483 81.21595764 245.93500092 81.22659302 246.87748718 C81.22738078 251.36493055 81.13839902 254.92668284 79 259 C52.6582703 259.22370165 26.33375589 258.58081541 0 258 C0.33 247.44 0.66 236.88 1 226 C5.95 226 10.9 226 16 226 C16 230.95 16 235.9 16 241 C26.56 241 37.12 241 48 241 C48 235.72 48 230.44 48 225 C37.77 225 27.54 225 17 225 C17 209.16 17 193.32 17 177 C11.39 177 5.78 177 0 177 C0.33 176.34 0.66 175.68 1 175 C5.95 175.33 10.9 175.66 16 176 C16 171.38 16 166.76 16 162 C31.84 161.67 47.68 161.34 64 161 C64 156.05 64 151.1 64 146 C69.28 146 74.56 146 80 146 C80 119.27 80 92.54 80 65 C74.72 65 69.44 65 64 65 C64 70.28 64 75.56 64 81 C53.44 81 42.88 81 32 81 C32 91.56 32 102.12 32 113 C37.28 113 42.56 113 48 113 C48 118.28 48 123.56 48 129 C52.95 129 57.9 129 63 129 C63 113.82 63 98.64 63 83 C63.33 83 63.66 83 64 83 C64 98.51 64 114.02 64 130 C48.16 130 32.32 130 16 130 C16 124.72 16 119.44 16 114 C5.44 114 -5.12 114 -16 114 C-16 108.39 -16 102.78 -16 97 C-5.44 97 5.12 97 16 97 C16 81.16 16 65.32 16 49 C10.72 49 5.44 49 0 49 C0 32.83 0 16.66 0 0 Z " fill="#06080F" transform="translate(56,182)"/>
<path d="M0 0 C5.28 0 10.56 0 16 0 C16 5.28 16 10.56 16 16 C21.28 16 26.56 16 32 16 C32 21.28 32 26.56 32 32 C37.28 32 42.56 32 48 32 C48 37.28 48 42.56 48 48 C53.28 48 58.56 48 64 48 C64 63.51 64 79.02 64 95 C69.28 95 74.56 95 80 95 C80 84.44 80 73.88 80 63 C85.28 63 90.56 63 96 63 C96 68.61 96 74.22 96 80 C101.28 80 106.56 80 112 80 C112 89.9 112 99.8 112 110 C106.72 110 101.44 110 96 110 C96 115.61 96 121.22 96 127 C90.72 127 85.44 127 80 127 C80 132.28 80 137.56 80 143 C53.6 143 27.2 143 0 143 C0 137.72 0 132.44 0 127 C-10.56 127 -21.12 127 -32 127 C-32 111.49 -32 95.98 -32 80 C-26.72 80 -21.44 80 -16 80 C-16 74.39 -16 68.78 -16 63 C-10.72 63 -5.44 63 0 63 C0 73.56 0 84.12 0 95 C5.28 95 10.56 95 16 95 C16 79.16 16 63.32 16 47 C0.16 47 -15.68 47 -32 47 C-32 41.72 -32 36.44 -32 31 C-26.72 31 -21.44 31 -16 31 C-16 25.72 -16 20.44 -16 15 C-10.72 15 -5.44 15 0 15 C0 10.05 0 5.1 0 0 Z " fill="#FDCA8C" transform="translate(104,72)"/>
<path d="M0 0 C10.23 0 20.46 0 31 0 C31 10.56 31 21.12 31 32 C20.44 32 9.88 32 -1 32 C-1 37.61 -1 43.22 -1 49 C9.56 49 20.12 49 31 49 C31 54.28 31 59.56 31 65 C46.84 65 62.68 65 79 65 C77.83722968 63.60843516 77.83722968 63.60843516 74.62109375 63.90234375 C73.22652508 63.90808576 71.83198403 63.92109772 70.4375 63.9375 C67.983125 63.958125 65.52875 63.97875 63 64 C63 58.72 63 53.44 63 48 C57.72 48 52.44 48 47 48 C47 37.44 47 26.88 47 16 C57.56 16 68.12 16 79 16 C79 10.72 79 5.44 79 0 C84.28 0 89.56 0 95 0 C95 26.73 95 53.46 95 81 C89.72 81 84.44 81 79 81 C79 85.95 79 90.9 79 96 C73.10799549 96.85481391 67.41741829 97.1344851 61.46875 97.09765625 C60.15396667 97.09553383 60.15396667 97.09553383 58.81262207 97.09336853 C56.04171179 97.08781768 53.27088543 97.07527461 50.5 97.0625 C48.60937618 97.05747864 46.71875107 97.05291685 44.828125 97.04882812 C40.21871817 97.0378644 35.60937327 97.02063425 31 97 C31 101.62 31 106.24 31 111 C29.92878906 110.98839844 28.85757813 110.97679687 27.75390625 110.96484375 C26.35677257 110.95546701 24.95963701 110.94636669 23.5625 110.9375 C22.85544922 110.92912109 22.14839844 110.92074219 21.41992188 110.91210938 C19.61306441 110.90346412 17.80612397 110.94779989 16 111 C15.67 111.33 15.34 111.66 15 112 C20.61 112 26.22 112 32 112 C32 127.84 32 143.68 32 160 C42.23 160 52.46 160 63 160 C63 165.28 63 170.56 63 176 C52.44 176 41.88 176 31 176 C31 171.05 31 166.1 31 161 C26.05 161 21.1 161 16 161 C16 170.9 16 180.8 16 191 C15.67 191 15.34 191 15 191 C15 180.77 15 170.54 15 160 C19.95 160 24.9 160 30 160 C30 144.82 30 129.64 30 114 C24.10833333 114.40416667 24.10833333 114.40416667 21.25 117.625 C19.38741951 119.27636002 18.37854761 119.94952699 15.890625 120.28125 C9.3470434 119.85356493 3.57451079 117.45472918 -2.50390625 115.14453125 C-7.39386438 113.54368462 -11.87377924 113.20781976 -17 113 C-17.495 105.575 -17.495 105.575 -18 98 C-22.95 97.67 -27.9 97.34 -33 97 C-33 86.44 -33 75.88 -33 65 C-27.72 65 -22.44 65 -17 65 C-17.16371094 62.88464844 -17.32742187 60.76929688 -17.49609375 58.58984375 C-18.10859647 49.91089578 -18.11348896 41.25852255 -18.0625 32.5625 C-18.05746574 31.04101713 -18.0529063 29.51953261 -18.04882812 27.99804688 C-18.0388605 24.33195503 -18.01926148 20.66610082 -18 17 C-12.06 17 -6.12 17 0 17 C0 11.39 0 5.78 0 0 Z " fill="#010108" transform="translate(41,247)"/>
<path d="M0 0 C21.12 0 42.24 0 64 0 C64 5.28 64 10.56 64 16 C79.84 16 95.68 16 112 16 C112 21.28 112 26.56 112 32 C106.72 32 101.44 32 96 32 C96 37.28 96 42.56 96 48 C85.44 48 74.88 48 64 48 C64 53.28 64 58.56 64 64 C69.28 64 74.56 64 80 64 C80 69.28 80 74.56 80 80 C69.44 80 58.88 80 48 80 C48 74.72 48 69.44 48 64 C42.72 64 37.44 64 32 64 C32 58.72 32 53.44 32 48 C26.72 48 21.44 48 16 48 C16 42.72 16 37.44 16 32 C5.44 32 -5.12 32 -16 32 C-16 26.72 -16 21.44 -16 16 C-10.72 16 -5.44 16 0 16 C0 10.72 0 5.44 0 0 Z " fill="#035047" transform="translate(104,23)"/>
<path d="M0 0 C4.95 0 9.9 0 15 0 C15 4.95 15 9.9 15 15 C25.56 15 36.12 15 47 15 C47 20.28 47 25.56 47 31 C36.44 31 25.88 31 15 31 C15 36.28 15 41.56 15 47 C9.72 47 4.44 47 -1 47 C-1 52.28 -1 57.56 -1 63 C4.28 63 9.56 63 15 63 C15 73.56 15 84.12 15 95 C9.72 95 4.44 95 -1 95 C-1 100.61 -1 106.22 -1 112 C9.56 112 20.12 112 31 112 C31 122.56 31 133.12 31 144 C20.44 144 9.88 144 -1 144 C-1 138.39 -1 132.78 -1 127 C-6.28 127 -11.56 127 -17 127 C-17 122.05 -17 117.1 -17 112 C-22.28 112 -27.56 112 -33 112 C-33 95.83 -33 79.66 -33 63 C-27.72 63 -22.44 63 -17 63 C-17 47.16 -17 31.32 -17 15 C-11.39 15 -5.78 15 0 15 C0 10.05 0 5.1 0 0 Z " fill="#00323C" transform="translate(185,200)"/>
<path d="M0 0 C5.28 0 10.56 0 16 0 C16 26.73 16 53.46 16 81 C10.72 81 5.44 81 0 81 C0 85.95 0 90.9 0 96 C-6.85946734 97.05722373 -13.56914919 97.1159671 -20.5 97.0625 C-24.295 97.041875 -28.09 97.02125 -32 97 C-32 86.44 -32 75.88 -32 65 C-21.44 65 -10.88 65 0 65 C-1.16277032 63.60843516 -1.16277032 63.60843516 -4.37890625 63.90234375 C-5.77347492 63.90808576 -7.16801597 63.92109772 -8.5625 63.9375 C-11.016875 63.958125 -13.47125 63.97875 -16 64 C-16 58.72 -16 53.44 -16 48 C-21.28 48 -26.56 48 -32 48 C-32 37.44 -32 26.88 -32 16 C-21.44 16 -10.88 16 0 16 C0 10.72 0 5.44 0 0 Z " fill="#01482E" transform="translate(120,247)"/>
<path d="M0 0 C0.99 0.495 0.99 0.495 2 1 C2.5625 2.890625 2.5625 2.890625 3 5.25 C3.54553658 8.02607725 4.09292826 10.20908859 5.25 12.8125 C6 15 6 15 5.125 17.3125 C4.568125 18.1478125 4.568125 18.1478125 4 19 C5.32 18.34 6.64 17.68 8 17 C8.08808512 13.82893561 8.07470182 11.00916509 7 8 C6.01 7.505 6.01 7.505 5 7 C4.505 3.535 4.505 3.535 4 0 C45.25 0 86.5 0 129 0 C129 0.99 129 1.98 129 3 C130.32 2.67 131.64 2.34 133 2 C133.45375 2.639375 133.9075 3.27875 134.375 3.9375 C135.83921726 6.09702406 135.83921726 6.09702406 138 7 C136.1875 9.5 136.1875 9.5 134 12 C133.01 12 132.02 12 131 12 C129.89459074 14.78918149 129.89459074 14.78918149 130 17 C129.67 17.66 129.34 18.32 129 19 C129.5775 18.814375 130.155 18.62875 130.75 18.4375 C133.24369772 17.95261433 134.59211213 18.30093578 137 19 C142.697972 19 146.18360509 16.87131235 151 14 C151.33 14.66 151.66 15.32 152 16 C152.66 16 153.32 16 154 16 C153.67 16.99 153.34 17.98 153 19 C153.5775 19.28875 154.155 19.5775 154.75 19.875 C155.4925 20.24625 156.235 20.6175 157 21 C157.680625 21.33 158.36125 21.66 159.0625 22 C161 23 161 23 164 25 C164.66 25 165.32 25 166 25 C166 24.34 166 23.68 166 23 C168 21 168 21 170.625 20.875 C171.40875 20.91625 172.1925 20.9575 173 21 C174.46851495 17.97118792 175.00057822 16.03122374 174.9375 12.625 C175.01150117 8.33293209 175.88277955 5.72338769 178 2 C182.65844535 -0.79104883 187.86324677 -0.25317236 193.11328125 -0.1953125 C194.56760811 -0.19106766 194.56760811 -0.19106766 196.05131531 -0.18673706 C199.13850405 -0.17556991 202.22539939 -0.15047152 205.3125 -0.125 C207.40950101 -0.11496573 209.50650658 -0.10584066 211.60351562 -0.09765625 C216.7357896 -0.07564188 221.8678451 -0.04113571 227 0 C227 2.31 227 4.62 227 7 C225.61663452 7.02187378 225.61663452 7.02187378 224.20532227 7.04418945 C220.74398482 7.10568474 217.28338547 7.17991477 213.82250977 7.26245117 C212.33205243 7.29545795 210.84147738 7.32356327 209.35083008 7.34643555 C201.09327862 7.47654112 193.7374815 7.77673459 186 11 C184.88625 11.391875 183.7725 11.78375 182.625 12.1875 C179.31985446 14.4696243 178.85946146 16.35146545 177.71875 20.0859375 C177 22 177 22 174.875 24.0625 C172.19328393 26.8336066 172.20551935 29.23214532 172 33 C172.33 33.99 172.66 34.98 173 36 C173.02172852 37.90112305 173.02172852 37.90112305 172.87890625 40.01171875 C172.83056641 40.76904297 172.78222656 41.52636719 172.73242188 42.30664062 C172.67634766 43.09232422 172.62027344 43.87800781 172.5625 44.6875 C172.51029297 45.48478516 172.45808594 46.28207031 172.40429688 47.10351562 C172.27480978 49.06936522 172.13809959 51.03473665 172 53 C172.98742187 52.98839844 173.97484375 52.97679687 174.9921875 52.96484375 C176.27351562 52.95582031 177.55484375 52.94679687 178.875 52.9375 C180.15117187 52.92589844 181.42734375 52.91429687 182.7421875 52.90234375 C186 53 186 53 188 54 C188.33 75.12 188.66 96.24 189 118 C193.95 118.33 198.9 118.66 204 119 C204 124.94 204 130.88 204 137 C203.67 137 203.34 137 203 137 C203 131.39 203 125.78 203 120 C197.72 120 192.44 120 187 120 C187 98.55 187 77.1 187 55 C181.72 55 176.44 55 171 55 C171 50.05 171 45.1 171 40 C165.72 40 160.44 40 155 40 C155 34.72 155 29.44 155 24 C144.44 24 133.88 24 123 24 C123 18.72 123 13.44 123 8 C86.04 8 49.08 8 11 8 C11 13.28 11 18.56 11 24 C0.44 24 -10.12 24 -21 24 C-21 28.95 -21 33.9 -21 39 C-26.28 39 -31.56 39 -37 39 C-37 44.28 -37 49.56 -37 55 C-42.28 55 -47.56 55 -53 55 C-53 76.12 -53 97.24 -53 119 C-58.28 119 -63.56 119 -69 119 C-69 118.67 -69 118.34 -69 118 C-63.95794547 116.86553773 -60.04512647 117.29639249 -55 118 C-55.00999275 116.84488167 -55.00999275 116.84488167 -55.02018738 115.66642761 C-55.08027629 108.41232217 -55.12596289 101.15833725 -55.15543652 93.90404797 C-55.17109859 90.17444945 -55.19234629 86.44505642 -55.22631836 82.71557617 C-55.25889319 79.11700226 -55.27684894 75.51862611 -55.28463173 71.91991615 C-55.29017868 70.54635822 -55.30101052 69.17281122 -55.31719017 67.79933739 C-55.33893676 65.87699293 -55.34022517 63.95444985 -55.34057617 62.03198242 C-55.35056892 60.38984016 -55.35056892 60.38984016 -55.36076355 58.71452332 C-55 56 -55 56 -53.67475891 54.14131165 C-50.99039143 52.3119738 -48.49590168 52.71794351 -45.3125 52.8125 C-43.54326172 52.85310547 -43.54326172 52.85310547 -41.73828125 52.89453125 C-40.83464844 52.92933594 -39.93101563 52.96414062 -39 53 C-39.05220703 51.64455078 -39.05220703 51.64455078 -39.10546875 50.26171875 C-39.13253906 49.08222656 -39.15960938 47.90273438 -39.1875 46.6875 C-39.22230469 45.51574219 -39.25710937 44.34398437 -39.29296875 43.13671875 C-39 40 -39 40 -37.65625 38.09375 C-35.38602488 36.59454473 -33.65931648 36.78437974 -31 37 C-32.64385904 28.78529991 -32.64385904 28.78529991 -37.0625 21.9375 C-39.11678512 19.88321488 -39.90645855 18.89978504 -40 16 C-37.16621254 12.12218558 -33.65821962 11.11492723 -29.0625 10.3125 C-26.38726752 9.99660539 -25.05386016 9.98292239 -22.4375 10.8125 C-19.28240383 11.05519971 -18.62919751 10.1854468 -16.25 8.1875 C-14.3803109 6.47632802 -13.13552614 5.27105229 -12 3 C-11.34 3.33 -10.68 3.66 -10 4 C-10 6.64 -10 9.28 -10 12 C-8.68 12.33 -7.36 12.66 -6 13 C-3.54420303 9.31435916 -3.54420303 9.31435916 -3 5 C-2.34 5 -1.68 5 -1 5 C-0.67 3.35 -0.34 1.7 0 0 Z M129 7 C129.33 7.66 129.66 8.32 130 9 C130.66 8.34 131.32 7.68 132 7 C131.01 7 130.02 7 129 7 Z M-35 13 C-34.67 13.66 -34.34 14.32 -34 15 C-33.01 15.33 -32.02 15.66 -31 16 C-31.54597644 17.63792933 -32.10878319 19.27195796 -32.75 20.875 C-33.11348643 23.96463469 -31.66019893 25.4458478 -30 28 C-29.835 28.7425 -29.67 29.485 -29.5 30.25 C-29.2525 31.11625 -29.2525 31.11625 -29 32 C-28.01 32.33 -27.02 32.66 -26 33 C-25.06576355 29.98968256 -24.95550089 29.13349732 -26 26 C-25.0625 23.3125 -25.0625 23.3125 -24 21 C-22.72125 21.04125 -21.4425 21.0825 -20.125 21.125 C-17.98128508 21.24212873 -17.98128508 21.24212873 -16 21 C-15.34 20.34 -14.68 19.68 -14 19 C-14.99 18.67 -15.98 18.34 -17 18 C-17.33 17.34 -17.66 16.68 -18 16 C-19.32 16 -20.64 16 -22 16 C-22.33 15.34 -22.66 14.68 -23 14 C-23.66 14 -24.32 14 -25 14 C-26.7092566 13.84308464 -28.41751321 13.67512685 -30.125 13.5 C-31.03507812 13.4071875 -31.94515625 13.314375 -32.8828125 13.21875 C-33.58148438 13.1465625 -34.28015625 13.074375 -35 13 Z M146 18 C145.67 18.66 145.34 19.32 145 20 C145.66 20 146.32 20 147 20 C146.67 19.34 146.34 18.68 146 18 Z M161 26 C159.93453047 29.1964086 159.92572162 31.65747276 160 35 C162.31 35 164.62 35 167 35 C166.690625 34.071875 166.38125 33.14375 166.0625 32.1875 C165.375 30.125 164.6875 28.0625 164 26 C163.01 26 162.02 26 161 26 Z " fill="#F9F9F9" transform="translate(77,0)"/>
<path d="M0 0 C5.28 0 10.56 0 16 0 C16 5.28 16 10.56 16 16 C21.28 16 26.56 16 32 16 C32 21.28 32 26.56 32 32 C42.56 32 53.12 32 64 32 C64 37.28 64 42.56 64 48 C74.56 48 85.12 48 96 48 C96.84323658 59.2431544 96.91089808 69.76559035 96 81 C90.72 81 85.44 81 80 81 C80 75.39 80 69.78 80 64 C74.72 64 69.44 64 64 64 C64 74.56 64 85.12 64 96 C58.72 96 53.44 96 48 96 C48 80.49 48 64.98 48 49 C42.72 49 37.44 49 32 49 C32 43.72 32 38.44 32 33 C26.72 33 21.44 33 16 33 C16 27.72 16 22.44 16 17 C10.72 17 5.44 17 0 17 C0 11.39 0 5.78 0 0 Z " fill="#040206" transform="translate(120,71)"/>
<path d="M0 0 C15.84 0 31.68 0 48 0 C48 5.28 48 10.56 48 16 C37.44 16 26.88 16 16 16 C16 26.56 16 37.12 16 48 C21.28 48 26.56 48 32 48 C32 53.28 32 58.56 32 64 C36.95 64 41.9 64 47 64 C47 48.82 47 33.64 47 18 C47.33 18 47.66 18 48 18 C48 33.51 48 49.02 48 65 C32.16 65 16.32 65 0 65 C0 59.72 0 54.44 0 49 C-10.56 49 -21.12 49 -32 49 C-32 43.39 -32 37.78 -32 32 C-21.44 32 -10.88 32 0 32 C0 21.44 0 10.88 0 0 Z " fill="#00020B" transform="translate(72,247)"/>
<path d="M0 0 C10.23 0 20.46 0 31 0 C31 10.56 31 21.12 31 32 C20.44 32 9.88 32 -1 32 C-1 37.61 -1 43.22 -1 49 C9.56 49 20.12 49 31 49 C31 54.28 31 59.56 31 65 C15.16 65 -0.68 65 -17 65 C-18.125 48.125 -18.125 48.125 -18.09765625 41.31640625 C-18.0962413 40.60516098 -18.09482635 39.89391571 -18.09336853 39.16111755 C-18.0879163 36.96152928 -18.07539705 34.76205575 -18.0625 32.5625 C-18.05746574 31.04101713 -18.0529063 29.51953261 -18.04882812 27.99804688 C-18.0388605 24.33195503 -18.01926148 20.66610082 -18 17 C-12.06 17 -6.12 17 0 17 C0 11.39 0 5.78 0 0 Z M-33 65 C-27.72 65 -22.44 65 -17 65 C-17 65.33 -17 65.66 -17 66 C-21.62 66 -26.24 66 -31 66 C-30.98839844 66.99257813 -30.97679687 67.98515625 -30.96484375 69.0078125 C-30.89304324 78.07262658 -31.24657819 86.95893827 -32 96 C-27.05 96 -22.1 96 -17 96 C-17.33 96.66 -17.66 97.32 -18 98 C-22.95 97.67 -27.9 97.34 -33 97 C-33 86.44 -33 75.88 -33 65 Z " fill="#111318" transform="translate(41,247)"/>
<path d="M0 0 C5.28 0 10.56 0 16 0 C16 5.28 16 10.56 16 16 C21.28 16 26.56 16 32 16 C32 21.28 32 26.56 32 32 C37.28 32 42.56 32 48 32 C48 36.95 48 41.9 48 47 C37.77 47 27.54 47 17 47 C17 62.84 17 78.68 17 95 C16.67 95 16.34 95 16 95 C16 79.16 16 63.32 16 47 C0.16 47 -15.68 47 -32 47 C-32 41.72 -32 36.44 -32 31 C-26.72 31 -21.44 31 -16 31 C-16 25.72 -16 20.44 -16 15 C-10.72 15 -5.44 15 0 15 C0 10.05 0 5.1 0 0 Z " fill="#DA8E5F" transform="translate(104,72)"/>
<path d="M0 0 C9.9 0 19.8 0 30 0 C30 5.28 30 10.56 30 16 C30.66 16 31.32 16 32 16 C32.33 15.01 32.66 14.02 33 13 C33 13.99 33 14.98 33 16 C37.95 16 42.9 16 48 16 C48 16.33 48 16.66 48 17 C42.72 17 37.44 17 32 17 C32 32.84 32 48.68 32 65 C21.44 65 10.88 65 0 65 C0 43.55 0 22.1 0 0 Z " fill="#000714" transform="translate(216,247)"/>
<path d="M0 0 C4.95 0 9.9 0 15 0 C15 4.95 15 9.9 15 15 C25.56 15 36.12 15 47 15 C47 20.28 47 25.56 47 31 C36.44 31 25.88 31 15 31 C15 36.28 15 41.56 15 47 C9.72 47 4.44 47 -1 47 C-1 52.28 -1 57.56 -1 63 C-6.28 63 -11.56 63 -17 63 C-17 47.16 -17 31.32 -17 15 C-11.39 15 -5.78 15 0 15 C0 10.05 0 5.1 0 0 Z " fill="#00141E" transform="translate(185,200)"/>
<path d="M0 0 C10.56 0 21.12 0 32 0 C32 5.28 32 10.56 32 16 C53.12 16 74.24 16 96 16 C96 21.28 96 26.56 96 32 C69.6 32 43.2 32 16 32 C16 26.72 16 21.44 16 16 C10.72 16 5.44 16 0 16 C0 10.72 0 5.44 0 0 Z " fill="#090001" transform="translate(72,199)"/>
<path d="M0 0 C10.56 0 21.12 0 32 0 C32 5.28 32 10.56 32 16 C26.72 16 21.44 16 16 16 C16 21.28 16 26.56 16 32 C10.72 32 5.44 32 0 32 C0 42.56 0 53.12 0 64 C-5.28 64 -10.56 64 -16 64 C-16 53.44 -16 42.88 -16 32 C-21.28 32 -26.56 32 -32 32 C-32 26.72 -32 21.44 -32 16 C-21.44 16 -10.88 16 0 16 C0 10.72 0 5.44 0 0 Z " fill="#00111E" transform="translate(200,55)"/>
<path d="M0 0 C4.95 0 9.9 0 15 0 C15.76435405 11.02853703 16.09960714 21.94360799 16 33 C21.28 33 26.56 33 32 33 C32 38.28 32 43.56 32 49 C42.56 49 53.12 49 64 49 C64 54.28 64 59.56 64 65 C48.16 65 32.32 65 16 65 C16 59.72 16 54.44 16 49 C10.72 49 5.44 49 0 49 C0 32.83 0 16.66 0 0 Z " fill="#001F2A" transform="translate(56,182)"/>
<path d="M0 0 C5.28 0 10.56 0 16 0 C16 5.28 16 10.56 16 16 C10.72 16 5.44 16 0 16 C0 20.95 0 25.9 0 31 C-2.31 31.165 -4.62 31.33 -7 31.5 C-8.299375 31.5928125 -9.59875 31.685625 -10.9375 31.78125 C-17.95216651 32.08435287 -24.97878803 32 -32 32 C-32 47.51 -32 63.02 -32 79 C-36.95 79 -41.9 79 -47 79 C-47 63.16 -47 47.32 -47 31 C-52.61 31 -58.22 31 -64 31 C-63.67 30.34 -63.34 29.68 -63 29 C-58.05 29.33 -53.1 29.66 -48 30 C-48 25.38 -48 20.76 -48 16 C-32.16 15.67 -16.32 15.34 0 15 C0 10.05 0 5.1 0 0 Z " fill="#000006" transform="translate(120,328)"/>
<path d="M0 0 C10.56 0 21.12 0 32 0 C32 21.45 32 42.9 32 65 C21.44 65 10.88 65 0 65 C0 59.39 0 53.78 0 48 C5.28 48 10.56 48 16 48 C16 37.44 16 26.88 16 16 C10.72 16 5.44 16 0 16 C0 10.72 0 5.44 0 0 Z " fill="#000001" transform="translate(184,247)"/>
<path d="M0 0 C5.28 0 10.56 0 16 0 C16 5.28 16 10.56 16 16 C26.56 16 37.12 16 48 16 C48 21.61 48 27.22 48 33 C42.72 33 37.44 33 32 33 C32 37.95 32 42.9 32 48 C26.72 48 21.44 48 16 48 C16 42.72 16 37.44 16 32 C5.44 32 -5.12 32 -16 32 C-16 26.39 -16 20.78 -16 15 C-10.72 15 -5.44 15 0 15 C0 10.05 0 5.1 0 0 Z " fill="#002832" transform="translate(72,39)"/>
<path d="M0 0 C10.56 0 21.12 0 32 0 C32 4.95 32 9.9 32 15 C37.28 15 42.56 15 48 15 C48.33 14.34 48.66 13.68 49 13 C49 13.66 49 14.32 49 15 C53.95 15 58.9 15 64 15 C64 15.33 64 15.66 64 16 C58.72 16 53.44 16 48 16 C48 21.28 48 26.56 48 32 C32.16 32 16.32 32 0 32 C0 21.44 0 10.88 0 0 Z " fill="#012A26" transform="translate(168,392)"/>
<path d="M0 0 C10.56 0 21.12 0 32 0 C31.67 15.84 31.34 31.68 31 48 C26.05 48 21.1 48 16 48 C16 42.72 16 37.44 16 32 C10.72 32 5.44 32 0 32 C0 21.44 0 10.88 0 0 Z " fill="#002A3A" transform="translate(88,263)"/>
<path d="M0 0 C5.28 0 10.56 0 16 0 C16 21.45 16 42.9 16 65 C10.72 65 5.44 65 0 65 C0 43.55 0 22.1 0 0 Z " fill="#039553" transform="translate(120,247)"/>
<path d="M0 0 C5.28 0 10.56 0 16 0 C16 4.95 16 9.9 16 15 C21.61 15 27.22 15 33 15 C33 30.84 33 46.68 33 63 C43.23 63 53.46 63 64 63 C64 68.28 64 73.56 64 79 C53.44 79 42.88 79 32 79 C32 74.05 32 69.1 32 64 C27.05 64 22.1 64 17 64 C17 73.9 17 83.8 17 94 C16.67 94 16.34 94 16 94 C16 83.77 16 73.54 16 63 C20.95 63 25.9 63 31 63 C31 47.82 31 32.64 31 17 C25.10833333 17.40416667 25.10833333 17.40416667 22.25 20.625 C20.38741951 22.27636002 19.37854761 22.94952699 16.890625 23.28125 C10.3470434 22.85356493 4.57451079 20.45472918 -1.50390625 18.14453125 C-6.31674338 16.56893206 -10.95900529 16.11316519 -16 16 C-16 15.67 -16 15.34 -16 15 C-10.72 15 -5.44 15 0 15 C0 10.05 0 5.1 0 0 Z " fill="#0C2F2C" transform="translate(40,344)"/>
<path d="M0 0 C10.56 0 21.12 0 32 0 C32 10.56 32 21.12 32 32 C21.44 32 10.88 32 0 32 C0 21.44 0 10.88 0 0 Z " fill="#000512" transform="translate(168,360)"/>
<path d="M0 0 C10.56 0 21.12 0 32 0 C32 10.56 32 21.12 32 32 C21.44 32 10.88 32 0 32 C0 21.44 0 10.88 0 0 Z " fill="#003643" transform="translate(168,263)"/>
<path d="M0 0 C10.56 0 21.12 0 32 0 C32 4.95 32 9.9 32 15 C34.64 15 37.28 15 40 15 C40 15.33 40 15.66 40 16 C37.69 16 35.38 16 33 16 C32.67 21.28 32.34 26.56 32 32 C20.96669649 32.73555357 10.0549102 33.13390874 -1 33 C-0.9278125 31.87464844 -0.855625 30.74929688 -0.78125 29.58984375 C-0.68726412 28.03907678 -0.59352796 26.48829466 -0.5 24.9375 C-0.42845703 23.83825195 -0.42845703 23.83825195 -0.35546875 22.71679688 C0.09401029 15.10775882 0 7.67311713 0 0 Z " fill="#021E2F" transform="translate(232,328)"/>
<path d="M0 0 C9.9 0 19.8 0 30 0 C30 5.28 30 10.56 30 16 C30.66 16 31.32 16 32 16 C32.33 15.01 32.66 14.02 33 13 C33 13.99 33 14.98 33 16 C37.95 16 42.9 16 48 16 C48 16.33 48 16.66 48 17 C42.72 17 37.44 17 32 17 C32 21.95 32 26.9 32 32 C21.44 32 10.88 32 0 32 C0 21.44 0 10.88 0 0 Z " fill="#00202C" transform="translate(216,247)"/>
<path d="M0 0 C10.23 0 20.46 0 31 0 C31 10.56 31 21.12 31 32 C20.44 32 9.88 32 -1 32 C-1 14.75462963 -1 14.75462963 -0.5 7.5625 C-0.335 5.066875 -0.17 2.57125 0 0 Z " fill="#002E40" transform="translate(41,247)"/>
<path d="M0 0 C5.28 0 10.56 0 16 0 C16 10.23 16 20.46 16 31 C0.16 31 -15.68 31 -32 31 C-32 26.05 -32 21.1 -32 16 C-21.28252277 15.23446591 -10.74432379 14.90406854 0 15 C0 10.05 0 5.1 0 0 Z " fill="#001522" transform="translate(120,344)"/>
<path d="M0 0 C5.28 0 10.56 0 16 0 C16 15.84 16 31.68 16 48 C10.72 48 5.44 48 0 48 C0 32.16 0 16.32 0 0 Z " fill="#050001" transform="translate(104,119)"/>
<path d="M0 0 C10.56 0 21.12 0 32 0 C32 10.56 32 21.12 32 32 C26.72 32 21.44 32 16 32 C16 26.72 16 21.44 16 16 C10.72 16 5.44 16 0 16 C0 10.72 0 5.44 0 0 Z " fill="#003134" transform="translate(120,55)"/>
<path d="M0 0 C10.56 0 21.12 0 32 0 C32 4.95 32 9.9 32 15 C26.72 15 21.44 15 16 15 C16 20.28 16 25.56 16 31 C10.72 31 5.44 31 0 31 C0 20.77 0 10.54 0 0 Z " fill="#003D35" transform="translate(184,40)"/>
<path d="M0 0 C15.84 0 31.68 0 48 0 C48 4.95 48 9.9 48 15 C32.16 15 16.32 15 0 15 C0 10.05 0 5.1 0 0 Z " fill="#602315" transform="translate(120,216)"/>
<path d="M0 0 C5.88988947 -0.02475223 11.77974854 -0.04288482 17.66967773 -0.05493164 C19.67261279 -0.05995478 21.67554419 -0.06677445 23.6784668 -0.07543945 C26.56039331 -0.08759345 29.44227125 -0.09324857 32.32421875 -0.09765625 C33.66355721 -0.10539818 33.66355721 -0.10539818 35.029953 -0.11329651 C35.87044693 -0.11337204 36.71094086 -0.11344757 37.5769043 -0.11352539 C38.31192673 -0.115746 39.04694916 -0.11796661 39.804245 -0.12025452 C42 0 42 0 47 1 C47 5.29 47 9.58 47 14 C31.49 14 15.98 14 0 14 C0 9.38 0 4.76 0 0 Z " fill="#FCB176" transform="translate(88,104)"/>
<path d="M0 0 C0.33 0 0.66 0 1 0 C1 31.35 1 62.7 1 95 C-3.62 95.33 -8.24 95.66 -13 96 C-13.99 96.99 -13.99 96.99 -15 98 C-15 87.44 -15 76.88 -15 66 C-10.05 66 -5.1 66 0 66 C0 44.22 0 22.44 0 0 Z " fill="#171B23" transform="translate(279,121)"/>
<path d="M0 0 C0.495 0.99 0.495 0.99 1 2 C5.95 2 10.9 2 16 2 C16 2.33 16 2.66 16 3 C10.72 3 5.44 3 0 3 C0 7.95 0 12.9 0 18 C-10.56 18 -21.12 18 -32 18 C-32 12.72 -32 7.44 -32 2 C-21.44 2 -10.88 2 0 2 C0 1.34 0 0.68 0 0 Z " fill="#082D25" transform="translate(216,405)"/>
<path d="M0 0 C5.28 0 10.56 0 16 0 C16 10.89 16 21.78 16 33 C10.72 33 5.44 33 0 33 C0 22.11 0 11.22 0 0 Z " fill="#D67440" transform="translate(40,134)"/>
<path d="M0 0 C5.28 0 10.56 0 16 0 C16 10.56 16 21.12 16 32 C10.72 32 5.44 32 0 32 C0 21.44 0 10.88 0 0 Z " fill="#001B22" transform="translate(200,312)"/>
<path d="M0 0 C10.56 0 21.12 0 32 0 C32 5.28 32 10.56 32 16 C21.44 16 10.88 16 0 16 C0 10.72 0 5.44 0 0 Z " fill="#017349" transform="translate(104,312)"/>
<path d="M0 0 C10.56 0 21.12 0 32 0 C32 5.28 32 10.56 32 16 C21.44 16 10.88 16 0 16 C0 10.72 0 5.44 0 0 Z " fill="#012B35" transform="translate(216,296)"/>
<path d="M0 0 C10.56 0 21.12 0 32 0 C32 5.28 32 10.56 32 16 C21.44 16 10.88 16 0 16 C0 10.72 0 5.44 0 0 Z " fill="#012629" transform="translate(40,296)"/>
<path d="M0 0 C10.56 0 21.12 0 32 0 C32 5.28 32 10.56 32 16 C21.44 16 10.88 16 0 16 C0 10.72 0 5.44 0 0 Z " fill="#00484D" transform="translate(88,231)"/>
<path d="M0 0 C10.56 0 21.12 0 32 0 C32 5.28 32 10.56 32 16 C21.44 16 10.88 16 0 16 C0 10.72 0 5.44 0 0 Z " fill="#00141F" transform="translate(120,231)"/>
<path d="M0 0 C10.56 0 21.12 0 32 0 C32 5.28 32 10.56 32 16 C21.44 16 10.88 16 0 16 C0 10.72 0 5.44 0 0 Z " fill="#002831" transform="translate(200,215)"/>
<path d="M0 0 C5.28 0 10.56 0 16 0 C16 10.56 16 21.12 16 32 C10.72 32 5.44 32 0 32 C0 21.44 0 10.88 0 0 Z " fill="#F2F5F4" transform="translate(184,135)"/>
<path d="M0 0 C5.28 0 10.56 0 16 0 C16 10.56 16 21.12 16 32 C10.72 32 5.44 32 0 32 C0 21.44 0 10.88 0 0 Z " fill="#D9763F" transform="translate(232,135)"/>
<path d="M0 0 C5.28 0 10.56 0 16 0 C16 10.56 16 21.12 16 32 C10.72 32 5.44 32 0 32 C0 21.44 0 10.88 0 0 Z " fill="#B9CAC7" transform="translate(88,135)"/>
<path d="M0 0 C10.56 0 21.12 0 32 0 C32 5.28 32 10.56 32 16 C21.44 16 10.88 16 0 16 C0 10.72 0 5.44 0 0 Z " fill="#002D36" transform="translate(152,87)"/>
<path d="M0 0 C5.28 0 10.56 0 16 0 C16.02720502 3.47922037 16.04693774 6.95822368 16.0625 10.4375 C16.07087891 11.41138672 16.07925781 12.38527344 16.08789062 13.38867188 C16.10782078 19.34778969 15.77609518 25.09067683 15 31 C10.05 31 5.1 31 0 31 C0 20.77 0 10.54 0 0 Z " fill="#00191F" transform="translate(72,312)"/>
<path d="M0 0 C4.95 0 9.9 0 15 0 C15 10.23 15 20.46 15 31 C9.72 31 4.44 31 -1 31 C-1.09220059 20.58133334 -0.79902419 10.38731444 0 0 Z " fill="#00121B" transform="translate(185,200)"/>
<path d="M0 0 C10.56 0 21.12 0 32 0 C32 4.95 32 9.9 32 15 C21.44 15 10.88 15 0 15 C0 10.05 0 5.1 0 0 Z " fill="#002121" transform="translate(88,392)"/>
<path d="M0 0 C10.56 0 21.12 0 32 0 C32 4.95 32 9.9 32 15 C21.44 15 10.88 15 0 15 C0 10.05 0 5.1 0 0 Z " fill="#001D2A" transform="translate(168,360)"/>
<path d="M0 0 C10.56 0 21.12 0 32 0 C32 4.95 32 9.9 32 15 C21.44 15 10.88 15 0 15 C0 10.05 0 5.1 0 0 Z " fill="#012D41" transform="translate(24,328)"/>
<path d="M0 0 C4.62 0 9.24 0 14 0 C14 9.9 14 19.8 14 30 C9.05 30 4.1 30 -1 30 C-1.10482832 19.93648157 -0.72955042 10.03131828 0 0 Z " fill="#000E19" transform="translate(10,313)"/>
<path d="M0 0 C4.62 0 9.24 0 14 0 C14 10.23 14 20.46 14 31 C9.38 31 4.76 31 0 31 C0 20.77 0 10.54 0 0 Z " fill="#00212C" transform="translate(10,183)"/>
<path d="M0 0 C5.28 0 10.56 0 16 0 C16 4.95 16 9.9 16 15 C21.28 15 26.56 15 32 15 C31.67 15.66 31.34 16.32 31 17 C30.113125 17.103125 29.22625 17.20625 28.3125 17.3125 C24.78746322 17.73943839 24.78746322 17.73943839 22.25 20.625 C20.38741951 22.27636002 19.37854761 22.94952699 16.890625 23.28125 C10.3470434 22.85356493 4.57451079 20.45472918 -1.50390625 18.14453125 C-6.31674338 16.56893206 -10.95900529 16.11316519 -16 16 C-16 15.67 -16 15.34 -16 15 C-10.72 15 -5.44 15 0 15 C0 10.05 0 5.1 0 0 Z " fill="#DC7F4A" transform="translate(40,344)"/>
<path d="M0 0 C14.57966916 -0.58405203 14.57966916 -0.58405203 19 3 C20.78310261 6.72830546 21.24144261 9.8954756 21 14 C26.58500567 13.80101292 26.58500567 13.80101292 31 11 C31.66 11.33 32.32 11.66 33 12 C33.94148531 14.82445592 34.07311695 16.14171618 33.87890625 19.01171875 C33.83056641 19.76904297 33.78222656 20.52636719 33.73242188 21.30664062 C33.67634766 22.09232422 33.62027344 22.87800781 33.5625 23.6875 C33.51029297 24.48478516 33.45808594 25.28207031 33.40429688 26.10351562 C33.27480978 28.06936522 33.13809959 30.03473665 33 32 C33.98742187 31.98839844 34.97484375 31.97679688 35.9921875 31.96484375 C37.27351563 31.95582031 38.55484375 31.94679688 39.875 31.9375 C41.15117187 31.92589844 42.42734375 31.91429688 43.7421875 31.90234375 C47 32 47 32 49 33 C49.33 54.12 49.66 75.24 50 97 C54.95 97.33 59.9 97.66 65 98 C65 103.94 65 109.88 65 116 C64.67 116 64.34 116 64 116 C64 110.39 64 104.78 64 99 C58.72 99 53.44 99 48 99 C48 77.55 48 56.1 48 34 C42.72 34 37.44 34 32 34 C32 29.05 32 24.1 32 19 C26.72 19 21.44 19 16 19 C16 13.72 16 8.44 16 3 C10.72 3 5.44 3 0 3 C0 2.01 0 1.02 0 0 Z " fill="#F9F9F9" transform="translate(216,21)"/>
<path d="M0 0 C0.33 0 0.66 0 1 0 C1 15.51 1 31.02 1 47 C-9.9100641 47 -20.21618499 46.91777149 -31 46 C-31 40.72 -31 35.44 -31 30 C-25.72 30 -20.44 30 -15 30 C-15 35.28 -15 40.56 -15 46 C-10.05 46 -5.1 46 0 46 C0 30.82 0 15.64 0 0 Z " fill="#000917" transform="translate(119,265)"/>
<path d="M0 0 C0.495 1.485 0.495 1.485 1 3 C5.95 3 10.9 3 16 3 C16 3.33 16 3.66 16 4 C10.72 4 5.44 4 0 4 C0 8.95 0 13.9 0 19 C-10.56 19 -21.12 19 -32 19 C-32 14.71 -32 10.42 -32 6 C-31.34 5.67 -30.68 5.34 -30 5 C-30 8.96 -30 12.92 -30 17 C-25.38 17 -20.76 17 -16 17 C-16 12.38 -16 7.76 -16 3 C-10.72 3 -5.44 3 0 3 C0 2.01 0 1.02 0 0 Z " fill="#053A3A" transform="translate(248,260)"/>
<path d="M0 0 C0.33 0 0.66 0 1 0 C1 17.82 1 35.64 1 54 C11.23 54 21.46 54 32 54 C32 58.62 32 63.24 32 68 C27.38 68 22.76 68 18 68 C17.505 62.06 17.505 62.06 17 56 C16.67 60.29 16.34 64.58 16 69 C15.67 69 15.34 69 15 69 C15 64.38 15 59.76 15 55 C13.39318359 55.01740234 13.39318359 55.01740234 11.75390625 55.03515625 C10.35677257 55.04453299 8.95963701 55.05363331 7.5625 55.0625 C6.85544922 55.07087891 6.14839844 55.07925781 5.41992188 55.08789062 C3.61306441 55.09653588 1.80612397 55.05220011 0 55 C-1.5887352 53.4112648 -1.1272899 51.77742941 -1.12939453 49.57543945 C-1.13254669 48.63388504 -1.13569885 47.69233063 -1.13894653 46.72224426 C-1.1369223 45.69628647 -1.13489807 44.67032867 -1.1328125 43.61328125 C-1.13376923 42.56351608 -1.13472595 41.51375092 -1.13571167 40.43217468 C-1.13639394 38.20356181 -1.13453642 35.97494697 -1.13037109 33.74633789 C-1.12505008 30.34451783 -1.1303007 26.94283141 -1.13671875 23.54101562 C-1.13605745 21.37760388 -1.13477523 19.21419221 -1.1328125 17.05078125 C-1.13483673 16.03494461 -1.13686096 15.01910797 -1.13894653 13.9724884 C-1.12323931 9.20218467 -0.99855622 4.68984274 0 0 Z " fill="#38464D" transform="translate(8,161)"/>
<path d="M0 0 C0.72963959 0.00141495 1.45927917 0.0028299 2.21102905 0.00428772 C4.54437335 0.00989094 6.87762214 0.0224439 9.2109375 0.03515625 C10.79166528 0.04017084 12.37239457 0.04473382 13.953125 0.04882812 C17.83076604 0.05986141 21.70833557 0.07712814 25.5859375 0.09765625 C25.5859375 0.42765625 25.5859375 0.75765625 25.5859375 1.09765625 C15.0259375 1.09765625 4.4659375 1.09765625 -6.4140625 1.09765625 C-6.4140625 6.04765625 -6.4140625 10.99765625 -6.4140625 16.09765625 C-11.6940625 16.09765625 -16.9740625 16.09765625 -22.4140625 16.09765625 C-22.4140625 21.37765625 -22.4140625 26.65765625 -22.4140625 32.09765625 C-27.6940625 32.09765625 -32.9740625 32.09765625 -38.4140625 32.09765625 C-38.4140625 53.21765625 -38.4140625 74.33765625 -38.4140625 96.09765625 C-43.6940625 96.09765625 -48.9740625 96.09765625 -54.4140625 96.09765625 C-54.4140625 95.76765625 -54.4140625 95.43765625 -54.4140625 95.09765625 C-49.37200797 93.96319398 -45.45918897 94.39404874 -40.4140625 95.09765625 C-40.42405525 93.94253792 -40.42405525 93.94253792 -40.43424988 92.76408386 C-40.49433879 85.50997842 -40.54002539 78.2559935 -40.56949902 71.00170422 C-40.58516109 67.2721057 -40.60640879 63.54271267 -40.64038086 59.81323242 C-40.67295569 56.21465851 -40.69091144 52.61628236 -40.69869423 49.0175724 C-40.70424118 47.64401447 -40.71507302 46.27046747 -40.73125267 44.89699364 C-40.75299926 42.97464918 -40.75428767 41.0521061 -40.75463867 39.12963867 C-40.76463142 37.48749641 -40.76463142 37.48749641 -40.77482605 35.81217957 C-40.4140625 33.09765625 -40.4140625 33.09765625 -39.08882141 31.2389679 C-36.40445393 29.40963005 -33.90996418 29.81559976 -30.7265625 29.91015625 C-29.54707031 29.93722656 -28.36757813 29.96429688 -27.15234375 29.9921875 C-26.24871094 30.02699219 -25.34507813 30.06179687 -24.4140625 30.09765625 C-24.42566406 29.18242188 -24.43726562 28.2671875 -24.44921875 27.32421875 C-24.45824219 26.13570312 -24.46726562 24.9471875 -24.4765625 23.72265625 C-24.48816406 22.53929688 -24.49976562 21.3559375 -24.51171875 20.13671875 C-24.4140625 17.09765625 -24.4140625 17.09765625 -23.4140625 15.09765625 C-20.7740625 15.09765625 -18.1340625 15.09765625 -15.4140625 15.09765625 C-15.0840625 14.10765625 -14.7540625 13.11765625 -14.4140625 12.09765625 C-13.0940625 12.09765625 -11.7740625 12.09765625 -10.4140625 12.09765625 C-10.36507812 11.31519531 -10.31609375 10.53273438 -10.265625 9.7265625 C-10.19085938 8.71464844 -10.11609375 7.70273437 -10.0390625 6.66015625 C-9.96945313 5.65082031 -9.89984375 4.64148438 -9.828125 3.6015625 C-9.69148438 2.77527344 -9.55484375 1.94898437 -9.4140625 1.09765625 C-6.40193221 -0.4084089 -3.30123628 -0.02394706 0 0 Z " fill="#F9F9F9" transform="translate(62.4140625,22.90234375)"/>
<path d="M0 0 C0 5.28 0 10.56 0 16 C10.56 16 21.12 16 32 16 C32 16.33 32 16.66 32 17 C16.16 17 0.32 17 -16 17 C-16 11.72 -16 6.44 -16 1 C-13.9890625 0.7525 -13.9890625 0.7525 -11.9375 0.5 C-10.80634766 0.36078125 -10.80634766 0.36078125 -9.65234375 0.21875 C-6.44495951 -0.04577654 -3.21827406 0 0 0 Z " fill="#001615" transform="translate(184,407)"/>
<path d="M0 0 C5.28 0 10.56 0 16 0 C16 4.95 16 9.9 16 15 C26.56 15 37.12 15 48 15 C48 15.33 48 15.66 48 16 C32.16 16 16.32 16 0 16 C0 10.72 0 5.44 0 0 Z " fill="#AB5335" transform="translate(72,103)"/>
<path d="M0 0 C10.56 0 21.12 0 32 0 C32 5.28 32 10.56 32 16 C31.67 16 31.34 16 31 16 C31 11.05 31 6.1 31 1 C26.05 1 21.1 1 16 1 C16 5.95 16 10.9 16 16 C10.72 16 5.44 16 0 16 C0 10.72 0 5.44 0 0 Z " fill="#0D0200" transform="translate(72,199)"/>
<path d="M0 0 C5.28 0 10.56 0 16 0 C16 4.95 16 9.9 16 15 C21.28 15 26.56 15 32 15 C32 15.33 32 15.66 32 16 C20.97146297 16.76435405 10.05639201 17.09960714 -1 17 C-0.67 11.39 -0.34 5.78 0 0 Z " fill="#D05A19" transform="translate(232,344)"/>
<path d="M0 0 C5.28 0 10.56 0 16 0 C16 5.61 16 11.22 16 17 C10.72 17 5.44 17 0 17 C0 11.39 0 5.78 0 0 Z " fill="#000B19" transform="translate(184,295)"/>
<path d="M0 0 C5.28 0 10.56 0 16 0 C16 5.61 16 11.22 16 17 C10.72 17 5.44 17 0 17 C0 11.39 0 5.78 0 0 Z " fill="#903D23" transform="translate(200,182)"/>
<path d="M0 0 C5.28 0 10.56 0 16 0 C16 4.95 16 9.9 16 15 C21.28 15 26.56 15 32 15 C32 15.33 32 15.66 32 16 C21.44 16 10.88 16 0 16 C0 10.72 0 5.44 0 0 Z " fill="#BD653E" transform="translate(72,183)"/>
<path d="M0 0 C5.28 0 10.56 0 16 0 C16 5.61 16 11.22 16 17 C10.72 17 5.44 17 0 17 C0 11.39 0 5.78 0 0 Z " fill="#984024" transform="translate(72,135)"/>
<path d="M0 0 C10.56 0 21.12 0 32 0 C32 0.33 32 0.66 32 1 C26.72 1 21.44 1 16 1 C16 5.95 16 10.9 16 16 C10.72 16 5.44 16 0 16 C0 10.72 0 5.44 0 0 Z " fill="#5E2113" transform="translate(88,71)"/>
<path d="M0 0 C1.65 0 3.3 0 5 0 C5 0.99 5 1.98 5 3 C7.31 3 9.62 3 12 3 C12 4.65 12 6.3 12 8 C16.29 8 20.58 8 25 8 C25 9.98 25 11.96 25 14 C15.43 14 5.86 14 -4 14 C-4 4 -4 4 -3 2 C-2.01 2 -1.02 2 0 2 C0 1.34 0 0.68 0 0 Z " fill="#00384B" transform="translate(172,281)"/>
<path d="M0 0 C5.28 0 10.56 0 16 0 C16 4.95 16 9.9 16 15 C9.14016191 16.05728087 2.43216776 16.11639843 -4.5 16.0625 C-5.60859375 16.05798828 -6.7171875 16.05347656 -7.859375 16.04882812 C-10.57297399 16.03713158 -13.28645761 16.02074086 -16 16 C-16 15.67 -16 15.34 -16 15 C-10.72 15 -5.44 15 0 15 C0 10.05 0 5.1 0 0 Z " fill="#02372A" transform="translate(104,328)"/>
<path d="M0 0 C1.2375 0.12568359 1.2375 0.12568359 2.5 0.25390625 C9.84522081 0.90153175 16.80653818 0.96789999 24.14282227 0.40869141 C30.10645564 -0.042579 36.02325535 -0.09727071 42 0 C42.33 0 42.66 0 43 0 C43.99 0.495 43.99 0.495 45 1 C44.67 1.66 44.34 2.32 44 3 C44.99 3.66 45.98 4.32 47 5 C10.37 5 -26.26 5 -64 5 C-64 4.67 -64 4.34 -64 4 C-42.55 3.67 -21.1 3.34 1 3 C0.505 1.515 0.505 1.515 0 0 Z " fill="#E8E9E9" transform="translate(152,3)"/>
<path d="M0 0 C5.28 0 10.56 0 16 0 C16 5.28 16 10.56 16 16 C10.72 16 5.44 16 0 16 C0 10.72 0 5.44 0 0 Z " fill="#012A2F" transform="translate(184,312)"/>
<path d="M0 0 C5.28 0 10.56 0 16 0 C16 5.28 16 10.56 16 16 C10.72 16 5.44 16 0 16 C0 10.72 0 5.44 0 0 Z " fill="#013E33" transform="translate(120,312)"/>
<path d="M0 0 C5.28 0 10.56 0 16 0 C16 5.28 16 10.56 16 16 C10.72 16 5.44 16 0 16 C0 10.72 0 5.44 0 0 Z " fill="#001B28" transform="translate(216,296)"/>
<path d="M0 0 C5.28 0 10.56 0 16 0 C16 5.28 16 10.56 16 16 C10.72 16 5.44 16 0 16 C0 10.72 0 5.44 0 0 Z " fill="#05483B" transform="translate(40,296)"/>
<path d="M0 0 C5.28 0 10.56 0 16 0 C16 5.28 16 10.56 16 16 C10.72 16 5.44 16 0 16 C0 10.72 0 5.44 0 0 Z " fill="#004D3E" transform="translate(120,247)"/>
<path d="M0 0 C5.28 0 10.56 0 16 0 C16 5.28 16 10.56 16 16 C10.72 16 5.44 16 0 16 C0 10.72 0 5.44 0 0 Z " fill="#02663D" transform="translate(184,231)"/>
<path d="M0 0 C5.28 0 10.56 0 16 0 C16 5.28 16 10.56 16 16 C10.72 16 5.44 16 0 16 C0 10.72 0 5.44 0 0 Z " fill="#001A21" transform="translate(72,231)"/>
<path d="M0 0 C5.28 0 10.56 0 16 0 C16 5.28 16 10.56 16 16 C10.72 16 5.44 16 0 16 C0 10.72 0 5.44 0 0 Z " fill="#000512" transform="translate(120,231)"/>
<path d="M0 0 C5.28 0 10.56 0 16 0 C16 5.28 16 10.56 16 16 C10.72 16 5.44 16 0 16 C0 10.72 0 5.44 0 0 Z " fill="#01695B" transform="translate(200,215)"/>
<path d="M0 0 C5.28 0 10.56 0 16 0 C16 5.28 16 10.56 16 16 C10.72 16 5.44 16 0 16 C0 10.72 0 5.44 0 0 Z " fill="#01724B" transform="translate(72,215)"/>
<path d="M0 0 C5.28 0 10.56 0 16 0 C16 5.28 16 10.56 16 16 C10.72 16 5.44 16 0 16 C0 10.72 0 5.44 0 0 Z " fill="#000001" transform="translate(168,215)"/>
<path d="M0 0 C5.28 0 10.56 0 16 0 C16 5.28 16 10.56 16 16 C10.72 16 5.44 16 0 16 C0 10.72 0 5.44 0 0 Z " fill="#E8915D" transform="translate(136,199)"/>
<path d="M0 0 C5.28 0 10.56 0 16 0 C16 5.28 16 10.56 16 16 C10.72 16 5.44 16 0 16 C0 10.72 0 5.44 0 0 Z " fill="#000F1A" transform="translate(216,199)"/>
<path d="M0 0 C5.28 0 10.56 0 16 0 C16 5.28 16 10.56 16 16 C10.72 16 5.44 16 0 16 C0 10.72 0 5.44 0 0 Z " fill="#CE7748" transform="translate(136,167)"/>
<path d="M0 0 C5.28 0 10.56 0 16 0 C16 5.28 16 10.56 16 16 C10.72 16 5.44 16 0 16 C0 10.72 0 5.44 0 0 Z " fill="#005D53" transform="translate(152,71)"/>
<path d="M0 0 C5.28 0 10.56 0 16 0 C16 5.28 16 10.56 16 16 C10.72 16 5.44 16 0 16 C0 10.72 0 5.44 0 0 Z " fill="#002534" transform="translate(216,55)"/>
<path d="M0 0 C5.28 0 10.56 0 16 0 C16 5.28 16 10.56 16 16 C10.72 16 5.44 16 0 16 C0 10.72 0 5.44 0 0 Z " fill="#002F30" transform="translate(184,55)"/>
<path d="M0 0 C5.28 0 10.56 0 16 0 C16 5.28 16 10.56 16 16 C10.72 16 5.44 16 0 16 C0 10.72 0 5.44 0 0 Z " fill="#00030D" transform="translate(104,55)"/>
<path d="M0 0 C5.28 0 10.56 0 16 0 C16 5.28 16 10.56 16 16 C10.72 16 5.44 16 0 16 C0 10.72 0 5.44 0 0 Z " fill="#001F22" transform="translate(168,23)"/>
<path d="M0 0 C1.39456867 0.00574201 2.78910972 0.01875397 4.18359375 0.03515625 C6.63796875 0.05578125 9.09234375 0.07640625 11.62109375 0.09765625 C11.62109375 5.37765625 11.62109375 10.65765625 11.62109375 16.09765625 C6.34109375 16.09765625 1.06109375 16.09765625 -4.37890625 16.09765625 C-4.39953125 13.64328125 -4.42015625 11.18890625 -4.44140625 8.66015625 C-4.45051025 7.88615479 -4.45961426 7.11215332 -4.46899414 6.31469727 C-4.47615538 4.57543908 -4.42915327 2.83620321 -4.37890625 1.09765625 C-3.37890625 0.09765625 -3.37890625 0.09765625 0 0 Z " fill="#00212E" transform="translate(44.37890625,262.90234375)"/>
<path d="M0 0 C4.95 0 9.9 0 15 0 C15 5.61 15 11.22 15 17 C10.05 17 5.1 17 0 17 C0 11.39 0 5.78 0 0 Z " fill="#BF5B34" transform="translate(40,150)"/>
<path d="M0 0 C4.95 0 9.9 0 15 0 C15 5.28 15 10.56 15 16 C9.72 16 4.44 16 -1 16 C-1.125 2.25 -1.125 2.25 0 0 Z " fill="#002927" transform="translate(89,23)"/>
<path d="M0 0 C0 5.94 0 11.88 0 18 C-4.95 17.67 -9.9 17.34 -15 17 C-15.020625 14.545625 -15.04125 12.09125 -15.0625 9.5625 C-15.071604 8.78849854 -15.08070801 8.01449707 -15.09008789 7.21704102 C-15.09724913 5.47778283 -15.05024702 3.73854696 -15 2 C-11.94318803 -1.05681197 -3.62176094 0 0 0 Z " fill="#002330" transform="translate(168,263)"/>
<path d="M0 0 C6.6 0 13.2 0 20 0 C18.68 0.33 17.36 0.66 16 1 C16 5.62 16 10.24 16 15 C10.72 15 5.44 15 0 15 C0 10.05 0 5.1 0 0 Z " fill="#1D090C" transform="translate(72,120)"/>
<path d="M0 0 C4.95 0 9.9 0 15 0 C15 4.95 15 9.9 15 15 C4.77 15 -5.46 15 -16 15 C-16 14.67 -16 14.34 -16 14 C-10.72 14 -5.44 14 0 14 C0 9.38 0 4.76 0 0 Z " fill="#D27A4D" transform="translate(104,73)"/>
<path d="M0 0 C5.28 0 10.56 0 16 0 C16 4.95 16 9.9 16 15 C10.72 15 5.44 15 0 15 C0 10.05 0 5.1 0 0 Z " fill="#000002" transform="translate(248,344)"/>
<path d="M0 0 C5.28 0 10.56 0 16 0 C16 4.95 16 9.9 16 15 C10.72 15 5.44 15 0 15 C0 10.05 0 5.1 0 0 Z " fill="#004141" transform="translate(168,312)"/>
<path d="M0 0 C4.95 0 9.9 0 15 0 C15 5.28 15 10.56 15 16 C10.05 16 5.1 16 0 16 C0 10.72 0 5.44 0 0 Z " fill="#004634" transform="translate(41,247)"/>
<path d="M0 0 C5.28 0 10.56 0 16 0 C16 4.95 16 9.9 16 15 C10.72 15 5.44 15 0 15 C0 10.05 0 5.1 0 0 Z " fill="#067C6A" transform="translate(88,232)"/>
<path d="M0 0 C5.28 0 10.56 0 16 0 C16 4.95 16 9.9 16 15 C10.72 15 5.44 15 0 15 C0 10.05 0 5.1 0 0 Z " fill="#80331F" transform="translate(152,216)"/>
<path d="M0 0 C5.28 0 10.56 0 16 0 C16 4.95 16 9.9 16 15 C10.72 15 5.44 15 0 15 C0 10.05 0 5.1 0 0 Z " fill="#F4F6F5" transform="translate(88,152)"/>
<path d="M0 0 C5.28 0 10.56 0 16 0 C16 4.95 16 9.9 16 15 C10.72 15 5.44 15 0 15 C0 10.05 0 5.1 0 0 Z " fill="#005652" transform="translate(168,88)"/>
<path d="M0 0 C0 0.66 0 1.32 0 2 C-1.38336548 2.02187378 -1.38336548 2.02187378 -2.79467773 2.04418945 C-6.25601518 2.10568474 -9.71661453 2.17991477 -13.17749023 2.26245117 C-14.66794757 2.29545795 -16.15852262 2.32356327 -17.64916992 2.34643555 C-25.90672138 2.47654112 -33.2625185 2.77673459 -41 6 C-42.670625 6.5878125 -42.670625 6.5878125 -44.375 7.1875 C-47.68083636 9.47010129 -48.13818216 11.35318159 -49.28515625 15.0859375 C-50.2555614 17.68429009 -52.05760126 19.05760126 -54 21 C-54.495 22.794375 -54.495 22.794375 -55 24.625 C-56 28 -56 28 -58.125 29.4375 C-58.74375 29.623125 -59.3625 29.80875 -60 30 C-62.29379749 26.55930376 -63 25.27709699 -63 21 C-62.34 20.67 -61.68 20.34 -61 20 C-61 19.34 -61 18.68 -61 18 C-59 16 -59 16 -56.375 15.875 C-55.59125 15.91625 -54.8075 15.9575 -54 16 C-52.47533261 12.85537351 -52.0013129 10.92385186 -52.0625 7.375 C-52 4 -52 4 -50.5 2.0625 C-50.005 1.711875 -49.51 1.36125 -49 1 C-48.67 2.65 -48.34 4.3 -48 6 C-47.17242187 5.55011719 -46.34484375 5.10023437 -45.4921875 4.63671875 C-31.23012441 -2.04762625 -15.32122311 -2.18874616 0 0 Z " fill="#FEFEFE" transform="translate(304,5)"/>
<path d="M0 0 C4.62 0 9.24 0 14 0 C14.22786458 2.99479167 14.45572917 5.98958333 14.68359375 8.984375 C14.94090773 11.43679962 15.31812218 13.63921291 16 16 C13.11584117 17.44207941 10.58278472 17.09394887 7.375 17.0625 C6.18648437 17.05347656 4.99796875 17.04445312 3.7734375 17.03515625 C2.85820312 17.02355469 1.94296875 17.01195312 1 17 C0.67 17.66 0.34 18.32 0 19 C0 12.73 0 6.46 0 0 Z " fill="#001018" transform="translate(248,215)"/>
<path d="M0 0 C4.95 0 9.9 0 15 0 C15 4.95 15 9.9 15 15 C10.05 15 5.1 15 0 15 C0 10.05 0 5.1 0 0 Z " fill="#A54C31" transform="translate(88,200)"/>
<path d="M0 0 C4.95 0 9.9 0 15 0 C15 4.95 15 9.9 15 15 C10.05 15 5.1 15 0 15 C0 10.05 0 5.1 0 0 Z " fill="#772D1B" transform="translate(185,200)"/>
<path d="M0 0 C4.95 0 9.9 0 15 0 C15 4.95 15 9.9 15 15 C10.05 15 5.1 15 0 15 C0 10.05 0 5.1 0 0 Z " fill="#813625" transform="translate(104,120)"/>
<path d="M0 0 C5.28 0 10.56 0 16 0 C16 4.62 16 9.24 16 14 C10.72 14 5.44 14 0 14 C0 9.38 0 4.76 0 0 Z " fill="#001A19" transform="translate(184,393)"/>
<path d="M0 0 C4.62 0 9.24 0 14 0 C14 5.28 14 10.56 14 16 C9.38 16 4.76 16 0 16 C0 10.72 0 5.44 0 0 Z " fill="#00191E" transform="translate(26,296)"/>
<path d="M0 0 C4.62 0 9.24 0 14 0 C14 5.28 14 10.56 14 16 C9.38 16 4.76 16 0 16 C0 10.72 0 5.44 0 0 Z " fill="#C2CECB" transform="translate(185,136)"/>
<path d="M0 0 C5.28 0 10.56 0 16 0 C16 4.62 16 9.24 16 14 C10.72 14 5.44 14 0 14 C0 9.38 0 4.76 0 0 Z " fill="#016E56" transform="translate(168,57)"/>
<path d="M0 0 C5.28 0 10.56 0 16 0 C16 4.62 16 9.24 16 14 C13.52076199 14.02685095 11.0418116 14.04676547 8.5625 14.0625 C7.85544922 14.07087891 7.14839844 14.07925781 6.41992188 14.08789062 C4.61306441 14.09653588 2.80612397 14.05220011 1 14 C0 13 0 13 -0.09765625 10.05859375 C-0.06510417 6.70572917 -0.03255208 3.35286458 0 0 Z " fill="#190204" transform="translate(56,344)"/>
<path d="M0 0 C0 5.28 0 10.56 0 16 C-4.95 16 -9.9 16 -15 16 C-15 11.05 -15 6.1 -15 1 C-8 0 -8 0 0 0 Z " fill="#C46639" transform="translate(248,150)"/>
<path d="M0 0 C0 4.95 0 9.9 0 15 C-5.28 15 -10.56 15 -16 15 C-15.125 2.125 -15.125 2.125 -14 1 C-11.83801065 0.76462213 -9.66968335 0.58607614 -7.5 0.4375 C-6.3140625 0.35371094 -5.128125 0.26992187 -3.90625 0.18359375 C-1 0 -1 0 0 0 Z " fill="#001A22" transform="translate(216,232)"/>
<path d="M0 0 C5.28 0 10.56 0 16 0 C16 4.95 16 9.9 16 15 C11.05 15 6.1 15 1 15 C1.03255208 11.6796875 1.06510417 8.359375 1.09765625 5.0390625 C1.21466593 2.08078479 1.21466593 2.08078479 0 0 Z " fill="#00212C" transform="translate(168,71)"/>
<path d="M0 0 C4.95 0 9.9 0 15 0 C15 4.62 15 9.24 15 14 C10.05 14 5.1 14 0 14 C0 9.38 0 4.76 0 0 Z " fill="#00020B" transform="translate(9,329)"/>
<path d="M0 0 C4.62 0 9.24 0 14 0 C14 4.95 14 9.9 14 15 C9.38 15 4.76 15 0 15 C0 10.05 0 5.1 0 0 Z " fill="#001F2A" transform="translate(264,199)"/>
<path d="M0 0 C4.95 0 9.9 0 15 0 C15 4.62 15 9.24 15 14 C10.05 14 5.1 14 0 14 C0 9.38 0 4.76 0 0 Z " fill="#FDC17D" transform="translate(200,153)"/>
<path d="M0 0 C4.95 0 9.9 0 15 0 C15 4.62 15 9.24 15 14 C10.05 14 5.1 14 0 14 C0 9.38 0 4.76 0 0 Z " fill="#D87D4A" transform="translate(152,121)"/>
<path d="M0 0 C4.95 0 9.9 0 15 0 C15 4.62 15 9.24 15 14 C10.05 14 5.1 14 0 14 C0 9.38 0 4.76 0 0 Z " fill="#CF7345" transform="translate(136,105)"/>
<path d="M0 0 C4.95 0 9.9 0 15 0 C15 4.62 15 9.24 15 14 C10.05 14 5.1 14 0 14 C0 9.38 0 4.76 0 0 Z " fill="#CB7547" transform="translate(120,89)"/>
<path d="M0 0 C1.08152344 0.01417969 2.16304688 0.02835938 3.27734375 0.04296875 C4.90349609 0.05263672 4.90349609 0.05263672 6.5625 0.0625 C9.21484375 0.23046875 9.21484375 0.23046875 10.21484375 1.23046875 C10.35877832 5.56577793 10.25696436 9.89204606 10.21484375 14.23046875 C4.93484375 14.23046875 -0.34515625 14.23046875 -5.78515625 14.23046875 C-4.9027239 0.40569525 -4.9027239 0.40569525 0 0 Z " fill="#00121B" transform="translate(93.78515625,215.76953125)"/>
<path d="M0 0 C4.95 0 9.9 0 15 0 C15 4.29 15 8.58 15 13 C10.05 13 5.1 13 0 13 C0 8.71 0 4.42 0 0 Z " fill="#E28D58" transform="translate(104,89)"/>
<path d="M0 0 C6.93 0.495 6.93 0.495 14 1 C14 5.29 14 9.58 14 14 C9.38 14 4.76 14 0 14 C-0.93775473 8.37347162 -0.83970643 5.41144142 0 0 Z " fill="#010A10" transform="translate(105,152)"/>
<path d="M0 0 C15.84 0 31.68 0 48 0 C47.67 0.66 47.34 1.32 47 2 C46.113125 2.103125 45.22625 2.20625 44.3125 2.3125 C40.78746322 2.73943839 40.78746322 2.73943839 38.25 5.625 C36.38741951 7.27636002 35.37854761 7.94952699 32.890625 8.28125 C26.3470434 7.85356493 20.57451079 5.45472918 14.49609375 3.14453125 C9.68325662 1.56893206 5.04099471 1.11316519 0 1 C0 0.67 0 0.34 0 0 Z " fill="#E8E7E6" transform="translate(24,359)"/>
<path d="M0 0 C7.59 0 15.18 0 23 0 C23 2.31 23 4.62 23 7 C15.41 7 7.82 7 0 7 C0 4.69 0 2.38 0 0 Z " fill="#018474" transform="translate(177,270)"/>
<path d="M0 0 C6.6 0 13.2 0 20 0 C20 1.98 20 3.96 20 6 C13.4 6 6.8 6 0 6 C0 4.02 0 2.04 0 0 Z " fill="#108572" transform="translate(177,289)"/>
<path d="M0 0 C0.33 0 0.66 0 1 0 C1 4.29 1 8.58 1 13 C11.56 13 22.12 13 33 13 C33 13.33 33 13.66 33 14 C17.16 14 1.32 14 -15 14 C-14.34 13.34 -13.68 12.68 -13 12 C-13 10.68 -13 9.36 -13 8 C-9.04 8 -5.08 8 -1 8 C-0.67 5.36 -0.34 2.72 0 0 Z " fill="#A0522B" transform="translate(87,105)"/>
<path d="M0 0 C0.72963959 0.00141495 1.45927917 0.0028299 2.21102905 0.00428772 C4.54437335 0.00989094 6.87762214 0.0224439 9.2109375 0.03515625 C10.79166528 0.04017084 12.37239457 0.04473382 13.953125 0.04882812 C17.83076604 0.05986141 21.70833557 0.07712814 25.5859375 0.09765625 C25.5859375 0.42765625 25.5859375 0.75765625 25.5859375 1.09765625 C15.0259375 1.09765625 4.4659375 1.09765625 -6.4140625 1.09765625 C-6.4140625 6.04765625 -6.4140625 10.99765625 -6.4140625 16.09765625 C-11.6940625 16.09765625 -16.9740625 16.09765625 -22.4140625 16.09765625 C-22.4140625 15.76765625 -22.4140625 15.43765625 -22.4140625 15.09765625 C-20.1040625 15.09765625 -17.7940625 15.09765625 -15.4140625 15.09765625 C-15.0840625 14.10765625 -14.7540625 13.11765625 -14.4140625 12.09765625 C-13.0940625 12.09765625 -11.7740625 12.09765625 -10.4140625 12.09765625 C-10.36507812 11.31519531 -10.31609375 10.53273438 -10.265625 9.7265625 C-10.19085938 8.71464844 -10.11609375 7.70273437 -10.0390625 6.66015625 C-9.96945313 5.65082031 -9.89984375 4.64148438 -9.828125 3.6015625 C-9.69148438 2.77527344 -9.55484375 1.94898437 -9.4140625 1.09765625 C-6.40193221 -0.4084089 -3.30123628 -0.02394706 0 0 Z " fill="#CBCBCC" transform="translate(62.4140625,22.90234375)"/>
<path d="M0 0 C2.0625 0.4375 2.0625 0.4375 4 1 C4.90765496 5.6290403 5.45297884 8.82993597 3 13 C0 14 0 14 -2.0078125 13.328125 C-2.70648438 12.97234375 -3.40515625 12.6165625 -4.125 12.25 C-4.82882813 11.90453125 -5.53265625 11.5590625 -6.2578125 11.203125 C-8 10 -8 10 -9 7 C-7.1875 6.375 -7.1875 6.375 -5 6 C-4.01 6.66 -3.02 7.32 -2 8 C-2 6.68 -2 5.36 -2 4 C-1.34 4 -0.68 4 0 4 C-0.33 3.01 -0.66 2.02 -1 1 C-0.67 0.67 -0.34 0.34 0 0 Z " fill="#FDFDFD" transform="translate(237,0)"/>
<path d="M0 0 C0.33 0.66 0.66 1.32 1 2 C1.66 2 2.32 2 3 2 C2.67 2.99 2.34 3.98 2 5 C2.86625 5.433125 2.86625 5.433125 3.75 5.875 C4.4925 6.24625 5.235 6.6175 6 7 C7.0209375 7.4640625 7.0209375 7.4640625 8.0625 7.9375 C10.09606201 9.05267917 11.44694668 10.29164135 13 12 C12.01 12.66 11.02 13.32 10 14 C9.34 14.66 8.68 15.32 8 16 C7.6596875 14.576875 7.6596875 14.576875 7.3125 13.125 C6.34009468 9.92030267 6.34009468 9.92030267 3.96875 8.84375 C0.03519356 7.72579185 -3.74119286 7.53880783 -7.8125 7.375 C-8.60076172 7.33632813 -9.38902344 7.29765625 -10.20117188 7.2578125 C-12.1337538 7.16411156 -14.06684376 7.08099221 -16 7 C-14.12109375 5.46484375 -14.12109375 5.46484375 -12 4 C-11.360625 4.185625 -10.72125 4.37125 -10.0625 4.5625 C-9.0415625 4.7790625 -9.0415625 4.7790625 -8 5 C-5.40144575 3.15449966 -5.40144575 3.15449966 -3 1 C-2.01 0.67 -1.02 0.34 0 0 Z M-5 4 C-5.33 4.66 -5.66 5.32 -6 6 C-5.34 6 -4.68 6 -4 6 C-4.33 5.34 -4.66 4.68 -5 4 Z " fill="#FFFFFF" transform="translate(228,14)"/>
<path d="M0 0 C2.97 0 5.94 0 9 0 C9 0.66 9 1.32 9 2 C8.34 2 7.68 2 7 2 C7.185625 3.27875 7.37125 4.5575 7.5625 5.875 C8.125 9.75 8.125 9.75 7 12 C4.69 12 2.38 12 0 12 C0 8.04 0 4.08 0 0 Z " fill="#B94B06" transform="translate(233,345)"/>
<path d="M0 0 C2.64 0 5.28 0 8 0 C8 4.95 8 9.9 8 15 C7.01 15 6.02 15 5 15 C4.49166409 13.75336669 3.99368855 12.50250613 3.5 11.25 C3.2215625 10.55390625 2.943125 9.8578125 2.65625 9.140625 C2 7 2 7 2 3 C1.01 3 0.02 3 -1 3 C-0.67 2.01 -0.34 1.02 0 0 Z " fill="#61251B" transform="translate(111,120)"/>
<path d="M0 0 C0.66 0 1.32 0 2 0 C2 1.98 2 3.96 2 6 C3.65 6 5.3 6 7 6 C7.33 7.65 7.66 9.3 8 11 C13.28 11.33 18.56 11.66 24 12 C24 12.33 24 12.66 24 13 C12.98080785 13.76370639 2.04528196 14.13379211 -9 14 C-8.67 13.01 -8.34 12.02 -8 11 C-3.38 11 1.24 11 6 11 C6 10.01 6 9.02 6 8 C4.68 8 3.36 8 2 8 C2 8.66 2 9.32 2 10 C1.34 10 0.68 10 0 10 C0 6.7 0 3.4 0 0 Z " fill="#BB7853" transform="translate(240,347)"/>
<path d="M0 0 C1.38294718 0.01329757 2.76582404 0.03715018 4.1484375 0.0703125 C4.85484375 0.07933594 5.56125 0.08835937 6.2890625 0.09765625 C8.03399848 0.12123647 9.77876045 0.15710789 11.5234375 0.1953125 C11.5234375 1.8453125 11.5234375 3.4953125 11.5234375 5.1953125 C8.89836948 5.22222094 6.27357577 5.24210654 3.6484375 5.2578125 C2.90207031 5.26619141 2.15570313 5.27457031 1.38671875 5.28320312 C-4.25 5.30859375 -4.25 5.30859375 -6.4765625 4.1953125 C-4.72980689 0.70180127 -3.98321904 0.22377635 0 0 Z " fill="#004558" transform="translate(188.4765625,263.8046875)"/>
<path d="M0 0 C4.95 0 9.9 0 15 0 C15 1.65 15 3.3 15 5 C10.38 5 5.76 5 1 5 C0.67 6.32 0.34 7.64 0 9 C0 6.03 0 3.06 0 0 Z " fill="#6A281D" transform="translate(88,72)"/>
<path d="M0 0 C4.95 0 9.9 0 15 0 C15 0.33 15 0.66 15 1 C10.38 1 5.76 1 1 1 C1.33 1.66 1.66 2.32 2 3 C2.039992 4.99960012 2.04346799 7.00047242 2 9 C2.66 9 3.32 9 4 9 C4 9.99 4 10.98 4 12 C7.63 12.33 11.26 12.66 15 13 C15 13.66 15 14.32 15 15 C10.05 15 5.1 15 0 15 C0 10.05 0 5.1 0 0 Z " fill="#B5573B" transform="translate(88,200)"/>
<path d="M0 0 C0.66 0 1.32 0 2 0 C2 4.29 2 8.58 2 13 C4.97 12.9690625 4.97 12.9690625 8 12.9375 C16.02935418 12.92929003 23.99461079 13.41778988 32 14 C32 14.33 32 14.66 32 15 C21.44 15 10.88 15 0 15 C0 10.05 0 5.1 0 0 Z " fill="#C37346" transform="translate(72,184)"/>
<path d="M0 0 C6.27 0.33 12.54 0.66 19 1 C19 1.33 19 1.66 19 2 C14.545 2.495 14.545 2.495 10 3 C10 4.32 10 5.64 10 7 C6.7 7 3.4 7 0 7 C0 4.69 0 2.38 0 0 Z " fill="#058F7E" transform="translate(177,270)"/>
<path d="M0 0 C10.56 0 21.12 0 32 0 C32 0.33 32 0.66 32 1 C30.95199219 1.03738281 29.90398437 1.07476562 28.82421875 1.11328125 C27.44527695 1.17894515 26.06637229 1.24539235 24.6875 1.3125 C23.65206055 1.34633789 23.65206055 1.34633789 22.59570312 1.38085938 C18.50793266 1.5836997 18.50793266 1.5836997 15.01953125 3.54296875 C14.68308594 4.02378906 14.34664062 4.50460937 14 5 C14.66 5.33 15.32 5.66 16 6 C13.36 6 10.72 6 8 6 C7.67 4.68 7.34 3.36 7 2 C4.69 1.67 2.38 1.34 0 1 C0 0.67 0 0.34 0 0 Z " fill="#085169" transform="translate(168,263)"/>
<path d="M0 0 C5.28 0 10.56 0 16 0 C16 5.28 16 10.56 16 16 C13.36 15.67 10.72 15.34 8 15 C8 14.67 8 14.34 8 14 C10.31 14 12.62 14 15 14 C15 10.37 15 6.74 15 3 C10.05 3 5.1 3 0 3 C0 2.01 0 1.02 0 0 Z " fill="#107852" transform="translate(104,312)"/>
<path d="M0 0 C4.62 0 9.24 0 14 0 C14 1.65 14 3.3 14 5 C9.71 5 5.42 5 1 5 C0.67 3.35 0.34 1.7 0 0 Z " fill="#BC5C2F" transform="translate(41,150)"/>
<path d="M0 0 C5.28 0 10.56 0 16 0 C16 0.66 16 1.32 16 2 C15.34 2 14.68 2 14 2 C14 2.66 14 3.32 14 4 C7.565 4.495 7.565 4.495 1 5 C0.67 3.35 0.34 1.7 0 0 Z " fill="#FEC17E" transform="translate(152,209)"/>
<path d="M0 0 C0.66 0 1.32 0 2 0 C2 0.99 2 1.98 2 3 C4.31 3 6.62 3 9 3 C9 4.65 9 6.3 9 8 C6.69 8 4.38 8 2 8 C2 9.98 2 11.96 2 14 C1.34 14 0.68 14 0 14 C0 9.38 0 4.76 0 0 Z " fill="#003B3D" transform="translate(175,281)"/>
<path d="M0 0 C5.28 0 10.56 0 16 0 C16 5.28 16 10.56 16 16 C15.67 16 15.34 16 15 16 C15 11.38 15 6.76 15 2 C8.565 2.495 8.565 2.495 2 3 C1.67 5.31 1.34 7.62 1 10 C0.67 10 0.34 10 0 10 C0 6.7 0 3.4 0 0 Z " fill="#015748" transform="translate(120,247)"/>
<path d="M0 0 C0.33 0 0.66 0 1 0 C1.33 2.97 1.66 5.94 2 9 C2.99 9 3.98 9 5 9 C5.33 10.32 5.66 11.64 6 13 C8.97 13.495 8.97 13.495 12 14 C12 14.33 12 14.66 12 15 C8.04 15 4.08 15 0 15 C0 10.05 0 5.1 0 0 Z " fill="#A85033" transform="translate(104,120)"/>
<path d="M0 0 C0.33 0 0.66 0 1 0 C1.33 4.95 1.66 9.9 2 15 C6.29 15 10.58 15 15 15 C15 15.66 15 16.32 15 17 C10.05 17 5.1 17 0 17 C0 11.39 0 5.78 0 0 Z " fill="#CF663F" transform="translate(40,150)"/>
<path d="M0 0 C0 0.99 0 1.98 0 3 C-8.91 3 -17.82 3 -27 3 C-27 2.67 -27 2.34 -27 2 C-23.71268961 1.28257633 -20.56685882 0.83774536 -17.20703125 0.68359375 C-16.32982422 0.64169922 -15.45261719 0.59980469 -14.54882812 0.55664062 C-13.64583984 0.51732422 -12.74285156 0.47800781 -11.8125 0.4375 C-10.89791016 0.39431641 -9.98332031 0.35113281 -9.04101562 0.30664062 C-2.44580853 0 -2.44580853 0 0 0 Z " fill="#F3F3F3" transform="translate(88,20)"/>
<path d="M0 0 C5.28 0 10.56 0 16 0 C16 0.33 16 0.66 16 1 C11.05 1 6.1 1 1 1 C1 4.96 1 8.92 1 13 C3.97 13 6.94 13 10 13 C10 12.34 10 11.68 10 11 C11.32 11 12.64 11 14 11 C14 11.99 14 12.98 14 14 C9.38 14 4.76 14 0 14 C0 9.38 0 4.76 0 0 Z " fill="#C76438" transform="translate(232,344)"/>
<path d="M0 0 C0.99 0.33 1.98 0.66 3 1 C2.67 3.31 2.34 5.62 2 8 C-3.28 8 -8.56 8 -14 8 C-14 7.67 -14 7.34 -14 7 C-8.06 6.505 -8.06 6.505 -2 6 C-1.34 4.02 -0.68 2.04 0 0 Z " fill="#D8D8D8" transform="translate(246,32)"/>
<path d="M0 0 C5.28 0 10.56 0 16 0 C16 0.33 16 0.66 16 1 C11.38 1.33 6.76 1.66 2 2 C2.04125 3.5675 2.0825 5.135 2.125 6.75 C2.23289353 10.8499541 1.93395001 12.13209997 0 16 C0 10.72 0 5.44 0 0 Z " fill="#AC5336" transform="translate(72,135)"/>
<path d="M0 0 C2.64 0 5.28 0 8 0 C8 1.98 8 3.96 8 6 C5.69 6 3.38 6 1 6 C0.67 4.02 0.34 2.04 0 0 Z " fill="#014F53" transform="translate(176,278)"/>
<path d="M0 0 C2.12493141 -0.02693575 4.24995912 -0.04636628 6.375 -0.0625 C7.55835938 -0.07410156 8.74171875 -0.08570312 9.9609375 -0.09765625 C13 0 13 0 15 1 C15 1.66 15 2.32 15 3 C10.05 3 5.1 3 0 3 C0 2.01 0 1.02 0 0 Z " fill="#EAEAEB" transform="translate(216,21)"/>
<path d="M0 0 C0.99 0.33 1.98 0.66 3 1 C4.125 3.4375 4.125 3.4375 5 6 C5.33 6.66 5.66 7.32 6 8 C2.625 8.125 2.625 8.125 -1 8 C-1.66 7.34 -2.32 6.68 -3 6 C-2.63318342 3.06546739 -2.13562754 2.13562754 0 0 Z " fill="#F0F0F0" transform="translate(62,9)"/>
<path d="M0 0 C5.28 0 10.56 0 16 0 C15.67 0.66 15.34 1.32 15 2 C12.05859375 2.4140625 12.05859375 2.4140625 8.4375 2.625 C7.23996094 2.69976562 6.04242188 2.77453125 4.80859375 2.8515625 C3.88175781 2.90054688 2.95492187 2.94953125 2 3 C1.67 5.97 1.34 8.94 1 12 C0.67 12 0.34 12 0 12 C0 8.04 0 4.08 0 0 Z " fill="#000C16" transform="translate(200,231)"/>
<path d="M0 0 C5.28 0 10.56 0 16 0 C16 2.31 16 4.62 16 7 C14.68 7 13.36 7 12 7 C12 5.02 12 3.04 12 1 C8.04 1 4.08 1 0 1 C0 0.67 0 0.34 0 0 Z " fill="#096C6C" transform="translate(184,270)"/>
<path d="M0 0 C5.28 0 10.56 0 16 0 C15.67 0.66 15.34 1.32 15 2 C14.14535156 1.98839844 13.29070312 1.97679687 12.41015625 1.96484375 C10.75306641 1.95130859 10.75306641 1.95130859 9.0625 1.9375 C7.40927734 1.92009766 7.40927734 1.92009766 5.72265625 1.90234375 C3.08552366 1.68737429 3.08552366 1.68737429 2 3 C1.76636119 4.84891946 1.58696365 6.70488031 1.4375 8.5625 C1.35371094 9.57441406 1.26992187 10.58632812 1.18359375 11.62890625 C1.12300781 12.41136719 1.06242187 13.19382813 1 14 C0.67 14 0.34 14 0 14 C0 9.38 0 4.76 0 0 Z " fill="#00050D" transform="translate(88,215)"/>
<path d="M0 0 C0.33 0.66 0.66 1.32 1 2 C1.99 2.33 2.98 2.66 4 3 C4.33 4.65 4.66 6.3 5 8 C5.66 8 6.32 8 7 8 C7 8.99 7 9.98 7 11 C7.66 11 8.32 11 9 11 C9 11.66 9 12.32 9 13 C7.68 12.67 6.36 12.34 5 12 C4.67 10.68 4.34 9.36 4 8 C3.01 8 2.02 8 1 8 C0.67 5.36 0.34 2.72 0 0 Z " fill="#903D28" transform="translate(105,121)"/>
<path d="M0 0 C1 2 2 4 3 6 C2.01 6.495 2.01 6.495 1 7 C0.34786708 9.02463255 0.34786708 9.02463255 0 11 C-0.99 11 -1.98 11 -3 11 C-3.6875 9.375 -3.6875 9.375 -4 7 C-1.72413793 1.72413793 -1.72413793 1.72413793 0 0 Z " fill="#FFFFFF" transform="translate(247,7)"/>
<path d="M0 0 C-0.33 1.98 -0.66 3.96 -1 6 C-1.66 6 -2.32 6 -3 6 C-3 6.66 -3 7.32 -3 8 C-3.66 8 -4.32 8 -5 8 C-5.33 8.66 -5.66 9.32 -6 10 C-6.22692276 6.67179946 -6.32162419 4.58198664 -4.6875 1.625 C-3 0 -3 0 0 0 Z " fill="#F1F1F1" transform="translate(250,23)"/>
<path d="M0 0 C3.63 0 7.26 0 11 0 C11 0.99 11 1.98 11 3 C7.37 3 3.74 3 0 3 C0 2.01 0 1.02 0 0 Z " fill="#027867" transform="translate(184,291)"/>
<path d="M0 0 C0.66 0.33 1.32 0.66 2 1 C2 1.99 2 2.98 2 4 C-0.88415883 5.44207941 -3.41721528 5.09394887 -6.625 5.0625 C-7.81351563 5.05347656 -9.00203125 5.04445312 -10.2265625 5.03515625 C-11.14179688 5.02355469 -12.05703125 5.01195312 -13 5 C-13.33 5.66 -13.66 6.32 -14 7 C-14 5.68 -14 4.36 -14 3 C-13.07316406 2.95101562 -12.14632812 2.90203125 -11.19140625 2.8515625 C-9.99386719 2.77679688 -8.79632813 2.70203125 -7.5625 2.625 C-6.36753906 2.55539063 -5.17257812 2.48578125 -3.94140625 2.4140625 C-2.97074219 2.27742187 -2.00007813 2.14078125 -1 2 C-0.67 1.34 -0.34 0.68 0 0 Z " fill="#5A6265" transform="translate(262,227)"/>
<path d="M0 0 C0.33 0 0.66 0 1 0 C1 4.29 1 8.58 1 13 C7.93 13.495 7.93 13.495 15 14 C15 14.33 15 14.66 15 15 C9.72 15 4.44 15 -1 15 C-0.67 10.05 -0.34 5.1 0 0 Z " fill="#A2B4B3" transform="translate(89,137)"/>
<path d="M0 0 C2.31 0 4.62 0 7 0 C7 1.65 7 3.3 7 5 C4.69 4.67 2.38 4.34 0 4 C0 2.68 0 1.36 0 0 Z " fill="#03524D" transform="translate(177,284)"/>
<path d="M0 0 C0.99 0.33 1.98 0.66 3 1 C-3.89715536 6.88183807 -3.89715536 6.88183807 -8.5 7.375 C-9.325 7.25125 -10.15 7.1275 -11 7 C-11.33 6.34 -11.66 5.68 -12 5 C-10.948125 4.9175 -9.89625 4.835 -8.8125 4.75 C-4.68373153 3.93778325 -3.15652518 2.63043765 0 0 Z " fill="#FFFFFF" transform="translate(64,360)"/>
<path d="M0 0 C0.99 0 1.98 0 3 0 C3.99 3.63 4.98 7.26 6 11 C5.34 11 4.68 11 4 11 C4 10.34 4 9.68 4 9 C3.34 9 2.68 9 2 9 C1.34 6.03 0.68 3.06 0 0 Z " fill="#762D1D" transform="translate(110,123)"/>
<path d="M0 0 C2 2 2 2 2.125 4.625 C2.08375 5.40875 2.0425 6.1925 2 7 C1.01 7.33 0.02 7.66 -1 8 C-2 7 -2 7 -2.1875 4.5625 C-2 2 -2 2 0 0 Z " fill="#F3F3F3" transform="translate(77,9)"/>
<path d="M0 0 C1.32 0 2.64 0 4 0 C4 0.66 4 1.32 4 2 C3.01 2.495 3.01 2.495 2 3 C2 6.96 2 10.92 2 15 C1.34 15 0.68 15 0 15 C0 10.05 0 5.1 0 0 Z " fill="#012D3A" transform="translate(264,199)"/>
<path d="M0 0 C2.31 0 4.62 0 7 0 C6.360625 0.4125 5.72125 0.825 5.0625 1.25 C2.79009069 3.17810487 2.39803561 4.11424181 2 7 C1.34 7 0.68 7 0 7 C0 4.69 0 2.38 0 0 Z " fill="#298D8A" transform="translate(177,270)"/>
<path d="M0 0 C1.32 0 2.64 0 4 0 C4 1.98 4 3.96 4 6 C3.01 6.33 2.02 6.66 1 7 C0.67 4.69 0.34 2.38 0 0 Z " fill="#BD4914" transform="translate(234,347)"/>
<path d="M0 0 C2.31 0 4.62 0 7 0 C7 0.99 7 1.98 7 3 C4.69 3 2.38 3 0 3 C0 2.01 0 1.02 0 0 Z " fill="#159078" transform="translate(177,281)"/>
<path d="M0 0 C0.99 0 1.98 0 3 0 C3 1.98 3 3.96 3 6 C2.01 6 1.02 6 0 6 C0 4.02 0 2.04 0 0 Z " fill="#C14C1A" transform="translate(242,347)"/>
<path d="M0 0 C0 0.99 0 1.98 0 3 C-0.66 2.34 -1.32 1.68 -2 1 C-1.34 0.67 -0.68 0.34 0 0 Z " fill="#FFFFFF" transform="translate(48,22)"/>
<path d="M0 0 C0.99 0.33 1.98 0.66 3 1 C2.67 1.66 2.34 2.32 2 3 C1.34 2.67 0.68 2.34 0 2 C0 1.34 0 0.68 0 0 Z " fill="#FFFFFF" transform="translate(219,9)"/>
<path d="M0 0 C1 4 1 4 1 4 Z " fill="#FFFFFF" transform="translate(241,21)"/>
<path d="M0 0 C0.66 0.66 1.32 1.32 2 2 C1.01 2.495 1.01 2.495 0 3 C0 2.01 0 1.02 0 0 Z " fill="#FFFFFF" transform="translate(208,15)"/>
<path d="M0 0 C1 4 1 4 1 4 Z " fill="#FFFFFF" transform="translate(215,7)"/>
<path d="M0 0 C3 1 3 1 3 1 Z " fill="#FFFFFF" transform="translate(246,19)"/>
<path d="M0 0 C2 1 2 1 2 1 Z " fill="#FFFFFF" transform="translate(47,20)"/>
<path d="M0 0 C2 1 2 1 2 1 Z " fill="#FFFFFF" transform="translate(218,17)"/>
<path d="" fill="#FFFFFF" transform="translate(0,0)"/>
<path d="M0 0 C2 1 2 1 2 1 Z " fill="#FFFFFF" transform="translate(220,14)"/>
<path d="M0 0 C2 1 2 1 2 1 Z " fill="#FFFFFF" transform="translate(211,12)"/>
<path d="M0 0 C2 1 2 1 2 1 Z " fill="#FFFFFF" transform="translate(212,4)"/>
<path d="" fill="#FFFFFF" transform="translate(0,0)"/>
<path d="" fill="#FFFFFF" transform="translate(0,0)"/>
<path d="" fill="#FFFFFF" transform="translate(0,0)"/>
<path d="" fill="#FFFFFF" transform="translate(0,0)"/>
<path d="" fill="#FFFFFF" transform="translate(0,0)"/>
<path d="" fill="#FFFFFF" transform="translate(0,0)"/>
<path d="" fill="#FFFFFF" transform="translate(0,0)"/>
<path d="" fill="#FFFFFF" transform="translate(0,0)"/>
<path d="" fill="#FFFFFF" transform="translate(0,0)"/>
<path d="" fill="#FFFFFF" transform="translate(0,0)"/>
<path d="" fill="#FFFFFF" transform="translate(0,0)"/>
<path d="" fill="#FFFFFF" transform="translate(0,0)"/>
<path d="" fill="#FFFFFF" transform="translate(0,0)"/>
<path d="" fill="#FFFFFF" transform="translate(0,0)"/>
<path d="" fill="#FFFFFF" transform="translate(0,0)"/>
<path d="" fill="#FFFFFF" transform="translate(0,0)"/>
<path d="" fill="#FFFFFF" transform="translate(0,0)"/>
<path d="" fill="#FFFFFF" transform="translate(0,0)"/>
<path d="" fill="#FFFFFF" transform="translate(0,0)"/>
<path d="" fill="#FFFFFF" transform="translate(0,0)"/>
<path d="" fill="#FFFFFF" transform="translate(0,0)"/>
<path d="" fill="#FFFFFF" transform="translate(0,0)"/>
<path d="" fill="#FFFFFF" transform="translate(0,0)"/>
<path d="" fill="#FFFFFF" transform="translate(0,0)"/>
<path d="" fill="#FFFFFF" transform="translate(0,0)"/>
<path d="" fill="#FFFFFF" transform="translate(0,0)"/>
<path d="" fill="#FFFFFF" transform="translate(0,0)"/>
<path d="" fill="#FFFFFF" transform="translate(0,0)"/>
<path d="" fill="#FFFFFF" transform="translate(0,0)"/>
<path d="" fill="#FFFFFF" transform="translate(0,0)"/>
<path d="" fill="#FFFFFF" transform="translate(0,0)"/>
<path d="" fill="#FFFFFF" transform="translate(0,0)"/>
<path d="" fill="#FFFFFF" transform="translate(0,0)"/>
<path d="" fill="#FFFFFF" transform="translate(0,0)"/>
<path d="" fill="#FFFFFF" transform="translate(0,0)"/>
<path d="" fill="#FFFFFF" transform="translate(0,0)"/>
<path d="" fill="#FFFFFF" transform="translate(0,0)"/>
<path d="" fill="#FFFFFF" transform="translate(0,0)"/>
<path d="" fill="#FFFFFF" transform="translate(0,0)"/>
<path d="" fill="#FFFFFF" transform="translate(0,0)"/>
<path d="" fill="#FFFFFF" transform="translate(0,0)"/>
<path d="" fill="#FFFFFF" transform="translate(0,0)"/>
<path d="" fill="#FFFFFF" transform="translate(0,0)"/>
<path d="" fill="#FFFFFF" transform="translate(0,0)"/>
<path d="" fill="#FFFFFF" transform="translate(0,0)"/>
<path d="" fill="#FFFFFF" transform="translate(0,0)"/>
<path d="" fill="#FFFFFF" transform="translate(0,0)"/>
</svg>
